<svg width="40" height="40" viewBox="0 0 40 40" fill="none" xmlns="http://www.w3.org/2000/svg">
<g clip-path="url(#clip0_115_935)">
<path d="M0 10C0 4.47715 4.47715 0 10 0H30C35.5228 0 40 4.47715 40 10V30C40 35.5228 35.5228 40 30 40H10C4.47715 40 0 35.5228 0 30V10Z" fill="#1A1F16"/>
<path d="M28.4444 22.6111V27.7222H25.8889V22.6111H28.4444ZM13.1111 22.6111V27.7222H11.8333C11.1306 27.7222 10.5556 27.1472 10.5556 26.4444V22.6111H13.1111ZM19.5 6C13.1494 6 8 11.1494 8 17.5V26.4444C8 28.5656 9.71222 30.2778 11.8333 30.2778H15.6667V20.0556H10.5556V17.5C10.5556 12.555 14.555 8.55556 19.5 8.55556C24.445 8.55556 28.4444 12.555 28.4444 17.5V20.0556H23.3333V30.2778H28.4444V31.5556H19.5V34.1111H27.1667C29.2878 34.1111 31 32.3989 31 30.2778V17.5C31 11.1494 25.8506 6 19.5 6Z" fill="white"/>
</g>
<defs>
<clipPath id="clip0_115_935">
<rect width="40" height="40" fill="white"/>
</clipPath>
</defs>
</svg>
