<svg width="59" height="30" viewBox="0 0 59 30" fill="none" xmlns="http://www.w3.org/2000/svg">
<rect width="59" height="30" rx="5" fill="#007CC1"/>
<path d="M13.56 15.4C13.56 14.3013 13.8053 13.32 14.296 12.456C14.7973 11.5813 15.4747 10.904 16.328 10.424C17.192 9.93333 18.1573 9.688 19.224 9.688C20.472 9.688 21.5653 10.008 22.504 10.648C23.4427 11.288 24.0987 12.1733 24.472 13.304H21.896C21.64 12.7707 21.2773 12.3707 20.808 12.104C20.3493 11.8373 19.816 11.704 19.208 11.704C18.5573 11.704 17.976 11.8587 17.464 12.168C16.9627 12.4667 16.568 12.8933 16.28 13.448C16.0027 14.0027 15.864 14.6533 15.864 15.4C15.864 16.136 16.0027 16.7867 16.28 17.352C16.568 17.9067 16.9627 18.3387 17.464 18.648C17.976 18.9467 18.5573 19.096 19.208 19.096C19.816 19.096 20.3493 18.9627 20.808 18.696C21.2773 18.4187 21.64 18.0133 21.896 17.48H24.472C24.0987 18.6213 23.4427 19.512 22.504 20.152C21.576 20.7813 20.4827 21.096 19.224 21.096C18.1573 21.096 17.192 20.856 16.328 20.376C15.4747 19.8853 14.7973 19.208 14.296 18.344C13.8053 17.48 13.56 16.4987 13.56 15.4ZM30.4012 21.112C29.6226 21.112 28.9186 20.9787 28.2892 20.712C27.6706 20.4453 27.1799 20.0613 26.8172 19.56C26.4546 19.0587 26.2679 18.4667 26.2572 17.784H28.6572C28.6892 18.2427 28.8492 18.6053 29.1372 18.872C29.4359 19.1387 29.8412 19.272 30.3533 19.272C30.8759 19.272 31.2866 19.1493 31.5852 18.904C31.8839 18.648 32.0333 18.3173 32.0333 17.912C32.0333 17.5813 31.9319 17.3093 31.7292 17.096C31.5266 16.8827 31.2706 16.7173 30.9613 16.6C30.6626 16.472 30.2466 16.3333 29.7133 16.184C28.9879 15.9707 28.3959 15.7627 27.9372 15.56C27.4892 15.3467 27.0999 15.032 26.7692 14.616C26.4492 14.1893 26.2892 13.624 26.2892 12.92C26.2892 12.2587 26.4546 11.6827 26.7852 11.192C27.1159 10.7013 27.5799 10.328 28.1772 10.072C28.7746 9.80533 29.4573 9.672 30.2253 9.672C31.3773 9.672 32.3106 9.95467 33.0253 10.52C33.7506 11.0747 34.1506 11.8533 34.2253 12.856H31.7613C31.7399 12.472 31.5746 12.1573 31.2653 11.912C30.9666 11.656 30.5666 11.528 30.0652 11.528C29.6279 11.528 29.2759 11.64 29.0092 11.864C28.7533 12.088 28.6253 12.4133 28.6253 12.84C28.6253 13.1387 28.7213 13.3893 28.9132 13.592C29.1159 13.784 29.3613 13.944 29.6493 14.072C29.9479 14.1893 30.3639 14.328 30.8973 14.488C31.6226 14.7013 32.2146 14.9147 32.6733 15.128C33.1319 15.3413 33.5266 15.6613 33.8573 16.088C34.1879 16.5147 34.3533 17.0747 34.3533 17.768C34.3533 18.3653 34.1986 18.92 33.8892 19.432C33.5799 19.944 33.1266 20.3547 32.5293 20.664C31.9319 20.9627 31.2226 21.112 30.4012 21.112ZM40.3112 21.112C39.5326 21.112 38.8286 20.9787 38.1992 20.712C37.5806 20.4453 37.0899 20.0613 36.7272 19.56C36.3646 19.0587 36.1779 18.4667 36.1672 17.784H38.5672C38.5992 18.2427 38.7592 18.6053 39.0472 18.872C39.3459 19.1387 39.7512 19.272 40.2632 19.272C40.7859 19.272 41.1966 19.1493 41.4952 18.904C41.7939 18.648 41.9433 18.3173 41.9433 17.912C41.9433 17.5813 41.8419 17.3093 41.6392 17.096C41.4366 16.8827 41.1806 16.7173 40.8713 16.6C40.5726 16.472 40.1566 16.3333 39.6233 16.184C38.8979 15.9707 38.3059 15.7627 37.8472 15.56C37.3992 15.3467 37.0099 15.032 36.6792 14.616C36.3592 14.1893 36.1992 13.624 36.1992 12.92C36.1992 12.2587 36.3646 11.6827 36.6952 11.192C37.0259 10.7013 37.4899 10.328 38.0872 10.072C38.6846 9.80533 39.3672 9.672 40.1353 9.672C41.2872 9.672 42.2206 9.95467 42.9353 10.52C43.6606 11.0747 44.0606 11.8533 44.1353 12.856H41.6712C41.6499 12.472 41.4846 12.1573 41.1753 11.912C40.8766 11.656 40.4766 11.528 39.9752 11.528C39.5379 11.528 39.1859 11.64 38.9192 11.864C38.6632 12.088 38.5352 12.4133 38.5352 12.84C38.5352 13.1387 38.6312 13.3893 38.8232 13.592C39.0259 13.784 39.2712 13.944 39.5592 14.072C39.8579 14.1893 40.2739 14.328 40.8073 14.488C41.5326 14.7013 42.1246 14.9147 42.5833 15.128C43.0419 15.3413 43.4366 15.6613 43.7673 16.088C44.0979 16.5147 44.2633 17.0747 44.2633 17.768C44.2633 18.3653 44.1086 18.92 43.7992 19.432C43.4899 19.944 43.0366 20.3547 42.4392 20.664C41.8419 20.9627 41.1326 21.112 40.3112 21.112Z" fill="white"/>
</svg>
