<svg width="53" height="23" viewBox="0 0 53 23" fill="none" xmlns="http://www.w3.org/2000/svg">
<rect width="53" height="23" rx="5" fill="#027CC0"/>
<path d="M12.49 11.1C12.49 10.1387 12.7047 9.28 13.134 8.524C13.5727 7.75867 14.1653 7.166 14.912 6.746C15.668 6.31667 16.5127 6.102 17.446 6.102C18.538 6.102 19.4947 6.382 20.316 6.942C21.1373 7.502 21.7113 8.27667 22.038 9.266H19.784C19.56 8.79933 19.2427 8.44933 18.832 8.216C18.4307 7.98267 17.964 7.866 17.432 7.866C16.8627 7.866 16.354 8.00133 15.906 8.272C15.4673 8.53333 15.122 8.90667 14.87 9.392C14.6273 9.87733 14.506 10.4467 14.506 11.1C14.506 11.744 14.6273 12.3133 14.87 12.808C15.122 13.2933 15.4673 13.6713 15.906 13.942C16.354 14.2033 16.8627 14.334 17.432 14.334C17.964 14.334 18.4307 14.2173 18.832 13.984C19.2427 13.7413 19.56 13.3867 19.784 12.92H22.038C21.7113 13.9187 21.1373 14.698 20.316 15.258C19.504 15.8087 18.5473 16.084 17.446 16.084C16.5127 16.084 15.668 15.874 14.912 15.454C14.1653 15.0247 13.5727 14.432 13.134 13.676C12.7047 12.92 12.49 12.0613 12.49 11.1ZM27.2261 16.098C26.5448 16.098 25.9288 15.9813 25.3781 15.748C24.8368 15.5147 24.4074 15.1787 24.0901 14.74C23.7728 14.3013 23.6094 13.7833 23.6001 13.186H25.7001C25.7281 13.5873 25.8681 13.9047 26.1201 14.138C26.3814 14.3713 26.7361 14.488 27.1841 14.488C27.6414 14.488 28.0008 14.3807 28.2621 14.166C28.5234 13.942 28.6541 13.6527 28.6541 13.298C28.6541 13.0087 28.5654 12.7707 28.3881 12.584C28.2108 12.3973 27.9868 12.2527 27.7161 12.15C27.4548 12.038 27.0908 11.9167 26.6241 11.786C25.9894 11.5993 25.4714 11.4173 25.0701 11.24C24.6781 11.0533 24.3374 10.778 24.0481 10.414C23.7681 10.0407 23.6281 9.546 23.6281 8.93C23.6281 8.35133 23.7728 7.84733 24.0621 7.418C24.3514 6.98867 24.7574 6.662 25.2801 6.438C25.8028 6.20467 26.4001 6.088 27.0721 6.088C28.0801 6.088 28.8968 6.33533 29.5221 6.83C30.1568 7.31533 30.5068 7.99667 30.5721 8.874H28.4161C28.3974 8.538 28.2528 8.26267 27.9821 8.048C27.7208 7.824 27.3708 7.712 26.9321 7.712C26.5494 7.712 26.2414 7.81 26.0081 8.006C25.7841 8.202 25.6721 8.48667 25.6721 8.86C25.6721 9.12133 25.7561 9.34067 25.9241 9.518C26.1014 9.686 26.3161 9.826 26.5681 9.938C26.8294 10.0407 27.1934 10.162 27.6601 10.302C28.2948 10.4887 28.8128 10.6753 29.2141 10.862C29.6154 11.0487 29.9608 11.3287 30.2501 11.702C30.5394 12.0753 30.6841 12.5653 30.6841 13.172C30.6841 13.6947 30.5488 14.18 30.2781 14.628C30.0074 15.076 29.6108 15.4353 29.0881 15.706C28.5654 15.9673 27.9448 16.098 27.2261 16.098ZM35.8973 16.098C35.216 16.098 34.6 15.9813 34.0493 15.748C33.508 15.5147 33.0787 15.1787 32.7613 14.74C32.444 14.3013 32.2807 13.7833 32.2713 13.186H34.3713C34.3993 13.5873 34.5393 13.9047 34.7913 14.138C35.0527 14.3713 35.4073 14.488 35.8553 14.488C36.3127 14.488 36.672 14.3807 36.9333 14.166C37.1947 13.942 37.3253 13.6527 37.3253 13.298C37.3253 13.0087 37.2367 12.7707 37.0593 12.584C36.882 12.3973 36.658 12.2527 36.3873 12.15C36.126 12.038 35.762 11.9167 35.2953 11.786C34.6607 11.5993 34.1427 11.4173 33.7413 11.24C33.3493 11.0533 33.0087 10.778 32.7193 10.414C32.4393 10.0407 32.2993 9.546 32.2993 8.93C32.2993 8.35133 32.444 7.84733 32.7333 7.418C33.0227 6.98867 33.4287 6.662 33.9513 6.438C34.474 6.20467 35.0713 6.088 35.7433 6.088C36.7513 6.088 37.568 6.33533 38.1933 6.83C38.828 7.31533 39.178 7.99667 39.2433 8.874H37.0873C37.0687 8.538 36.924 8.26267 36.6533 8.048C36.392 7.824 36.042 7.712 35.6033 7.712C35.2207 7.712 34.9127 7.81 34.6793 8.006C34.4553 8.202 34.3433 8.48667 34.3433 8.86C34.3433 9.12133 34.4273 9.34067 34.5953 9.518C34.7727 9.686 34.9873 9.826 35.2393 9.938C35.5007 10.0407 35.8647 10.162 36.3313 10.302C36.966 10.4887 37.484 10.6753 37.8853 10.862C38.2867 11.0487 38.632 11.3287 38.9213 11.702C39.2107 12.0753 39.3553 12.5653 39.3553 13.172C39.3553 13.6947 39.22 14.18 38.9493 14.628C38.6787 15.076 38.282 15.4353 37.7593 15.706C37.2367 15.9673 36.616 16.098 35.8973 16.098Z" fill="#F1F1F1"/>
</svg>
