<svg width="40" height="41" viewBox="0 0 40 41" fill="none" xmlns="http://www.w3.org/2000/svg">
<g clip-path="url(#clip0_4_42)">
<path d="M29.6674 17.904C30.2876 17.2712 29.8392 16.2041 28.9532 16.2041H25.6667C25.1144 16.2041 24.6667 15.7564 24.6667 15.2041V7C24.6667 6.44772 24.219 6 23.6667 6H15.6667C15.1144 6 14.6667 6.44772 14.6667 7V15.2041C14.6667 15.7564 14.219 16.2041 13.6667 16.2041H10.3801C9.4941 16.2041 9.04576 17.2712 9.66593 17.904L18.9525 27.3801C19.3445 27.7802 19.9888 27.7802 20.3809 27.3801L29.6674 17.904ZM9 31.5102C8.44772 31.5102 8 31.9579 8 32.5102V33.9116C8 34.4639 8.44772 34.9116 9 34.9116H30.3333C30.8856 34.9116 31.3333 34.4639 31.3333 33.9116V32.5102C31.3333 31.9579 30.8856 31.5102 30.3333 31.5102H9Z" fill="#F1F1F1"/>
</g>
<defs>
<clipPath id="clip0_4_42">
<rect width="40" height="40.8163" fill="white"/>
</clipPath>
</defs>
</svg>
