<svg width="25" height="25" viewBox="0 0 25 25" fill="none" xmlns="http://www.w3.org/2000/svg">
<path d="M21.0938 1.5625H3.90625C2.6123 1.5625 1.5625 2.6123 1.5625 3.90625V21.0938C1.5625 22.3877 2.6123 23.4375 3.90625 23.4375H21.0938C22.3877 23.4375 23.4375 22.3877 23.4375 21.0938V3.90625C23.4375 2.6123 22.3877 1.5625 21.0938 1.5625ZM15.1025 20.2979C14.6924 20.3711 14.541 20.1172 14.541 19.9072C14.541 19.6436 14.5508 18.2959 14.5508 17.207C14.5508 16.4453 14.2969 15.9619 13.999 15.708C15.8057 15.5078 17.71 15.2588 17.71 12.1387C17.71 11.25 17.3926 10.8057 16.875 10.2344C16.958 10.0244 17.2363 9.16016 16.792 8.03711C16.1133 7.82715 14.5605 8.91113 14.5605 8.91113C13.916 8.73047 13.2178 8.63769 12.5293 8.63769C11.8408 8.63769 11.1426 8.73047 10.498 8.91113C10.498 8.91113 8.94531 7.82715 8.2666 8.03711C7.82227 9.15527 8.0957 10.0195 8.18359 10.2344C7.66602 10.8057 7.42188 11.25 7.42188 12.1387C7.42188 15.2441 9.24316 15.5078 11.0498 15.708C10.8154 15.918 10.6055 16.2793 10.5322 16.7969C10.0684 17.0068 8.88184 17.3682 8.17383 16.1182C7.72949 15.3467 6.92871 15.2832 6.92871 15.2832C6.1377 15.2734 6.875 15.7813 6.875 15.7813C7.40234 16.0254 7.77344 16.9629 7.77344 16.9629C8.24707 18.4131 10.5127 17.9248 10.5127 17.9248C10.5127 18.6035 10.5225 19.707 10.5225 19.9072C10.5225 20.1172 10.376 20.3711 9.96094 20.2979C6.73828 19.2188 4.48242 16.1523 4.48242 12.5684C4.48242 8.08594 7.91016 4.68262 12.3926 4.68262C16.875 4.68262 20.5078 8.08594 20.5078 12.5684C20.5127 16.1523 18.3252 19.2236 15.1025 20.2979ZM10.3125 17.3145C10.2197 17.334 10.1318 17.2949 10.1221 17.2314C10.1123 17.1582 10.1758 17.0947 10.2686 17.0752C10.3613 17.0654 10.4492 17.1045 10.459 17.168C10.4736 17.2314 10.4102 17.2949 10.3125 17.3145ZM9.84863 17.2705C9.84863 17.334 9.77539 17.3877 9.67773 17.3877C9.57031 17.3975 9.49707 17.3438 9.49707 17.2705C9.49707 17.207 9.57031 17.1533 9.66797 17.1533C9.76074 17.1436 9.84863 17.1973 9.84863 17.2705ZM9.17969 17.2168C9.16016 17.2803 9.0625 17.3096 8.97949 17.2803C8.88672 17.2607 8.82324 17.1875 8.84277 17.124C8.86231 17.0605 8.95996 17.0313 9.04297 17.0508C9.14062 17.0801 9.2041 17.1533 9.17969 17.2168ZM8.5791 16.9531C8.53516 17.0068 8.44238 16.9971 8.36914 16.9238C8.2959 16.8604 8.27637 16.7676 8.3252 16.7236C8.36914 16.6699 8.46191 16.6797 8.53516 16.7529C8.59863 16.8164 8.62305 16.9141 8.5791 16.9531ZM8.13477 16.5088C8.09082 16.5381 8.00781 16.5088 7.9541 16.4355C7.90039 16.3623 7.90039 16.2793 7.9541 16.2451C8.00781 16.2012 8.09082 16.2354 8.13477 16.3086C8.18848 16.3818 8.18848 16.4697 8.13477 16.5088ZM7.81738 16.0352C7.77344 16.0791 7.7002 16.0547 7.64648 16.0059C7.59277 15.9424 7.58301 15.8691 7.62695 15.835C7.6709 15.791 7.74414 15.8154 7.79785 15.8643C7.85156 15.9277 7.86133 16.001 7.81738 16.0352ZM7.49023 15.6738C7.4707 15.7178 7.40723 15.7275 7.35352 15.6934C7.29004 15.6641 7.26074 15.6104 7.28027 15.5664C7.2998 15.5371 7.35352 15.5225 7.41699 15.5469C7.48047 15.5811 7.50977 15.6348 7.49023 15.6738Z" fill="#DADADA"/>
</svg>
