<svg width="48" height="48" viewBox="0 0 48 48" fill="none" xmlns="http://www.w3.org/2000/svg">
<g clip-path="url(#clip0_3_6)">
<circle cx="23.5" cy="25.5" r="22.5" fill="#F1F1F1"/>
<path d="M23.4994 -1C9.97053 -1 -1 10.1787 -1 23.9695C-1 35.0018 6.01983 44.3616 15.7542 47.6633C16.9786 47.8944 17.4281 47.1216 17.4281 46.4621C17.4281 45.8667 17.4054 43.8997 17.3948 41.8132C10.5791 43.3237 9.14088 38.8671 9.14088 38.8671C8.02642 35.981 6.42066 35.2135 6.42066 35.2135C4.19783 33.6638 6.58821 33.6956 6.58821 33.6956C9.04838 33.8713 10.3438 36.2687 10.3438 36.2687C12.5289 40.0861 16.0751 38.9825 17.4731 38.3445C17.693 36.731 18.328 35.6287 19.0286 35.0055C13.5869 34.3741 7.86657 32.2331 7.86657 22.6653C7.86657 19.9392 8.82362 17.7117 10.3908 15.963C10.1365 15.3337 9.29788 12.7945 10.6282 9.35505C10.6282 9.35505 12.6855 8.68395 17.3673 11.9146C19.3215 11.3613 21.4174 11.0839 23.4994 11.0743C25.5815 11.0839 27.6789 11.3613 29.6368 11.9146C34.3129 8.68395 36.3674 9.35505 36.3674 9.35505C37.7009 12.7945 36.8619 15.3337 36.6076 15.963C38.1784 17.7117 39.129 19.9392 39.129 22.6653C39.129 32.2558 33.3977 34.3675 27.9422 34.9857C28.821 35.7606 29.604 37.2801 29.604 39.6097C29.604 42.9503 29.5756 45.6393 29.5756 46.4621C29.5756 47.1266 30.0166 47.9052 31.2584 47.66C40.9875 44.3546 47.9984 34.9981 47.9984 23.9695C47.9984 10.1787 37.0295 -1 23.4994 -1" fill="#A80101"/>
<path d="M8.27917 34.8509C8.22521 34.9753 8.03372 35.0121 7.85927 34.927C7.68157 34.8455 7.58177 34.6764 7.63938 34.5519C7.69212 34.4242 7.88401 34.389 8.0613 34.4738C8.23941 34.5556 8.34083 34.7264 8.27917 34.8509" fill="#A80101"/>
<path d="M9.27151 35.9789C9.15466 36.0893 8.92625 36.038 8.77128 35.8635C8.61103 35.6895 8.581 35.4567 8.69947 35.3446C8.81996 35.2342 9.04147 35.2859 9.20213 35.46C9.36238 35.6361 9.39362 35.8673 9.27151 35.9789" fill="#A80101"/>
<path d="M10.2375 37.417C10.0874 37.5233 9.84192 37.4236 9.69019 37.2016C9.54008 36.9795 9.54008 36.7133 9.69344 36.6066C9.84557 36.4999 10.0874 36.5958 10.2411 36.8162C10.3908 37.0416 10.3908 37.3083 10.2375 37.417" fill="#A80101"/>
<path d="M11.5609 38.8063C11.4266 38.9573 11.1406 38.9167 10.9312 38.7108C10.717 38.5094 10.6574 38.2237 10.7921 38.0728C10.928 37.9215 11.2156 37.9641 11.4266 38.1683C11.6392 38.3693 11.7041 38.6571 11.5609 38.8063" fill="#A80101"/>
<path d="M13.3865 39.613C13.3273 39.8086 13.0518 39.8975 12.7743 39.8144C12.4972 39.7288 12.3159 39.4997 12.3719 39.3021C12.4295 39.1053 12.7062 39.0126 12.9857 39.1015C13.2624 39.1867 13.4441 39.4141 13.3865 39.613" fill="#A80101"/>
<path d="M15.3915 39.7627C15.3984 39.9687 15.1631 40.1394 14.8718 40.1427C14.5789 40.1498 14.342 39.9831 14.3387 39.7805C14.3387 39.5725 14.5687 39.4034 14.8617 39.3985C15.1529 39.3927 15.3915 39.5581 15.3915 39.7627" fill="#A80101"/>
<path d="M17.2573 39.4389C17.2922 39.6399 17.0898 39.8462 16.8005 39.9008C16.5161 39.9542 16.2528 39.8301 16.2167 39.6308C16.1814 39.4249 16.3875 39.2186 16.6715 39.1652C16.9611 39.1139 17.2204 39.2347 17.2573 39.4389" fill="#A80101"/>
</g>
<defs>
<clipPath id="clip0_3_6">
<rect width="48" height="48" rx="24" fill="white"/>
</clipPath>
</defs>
</svg>
