<svg width="53" height="23" viewBox="0 0 53 23" fill="none" xmlns="http://www.w3.org/2000/svg">
<rect width="53" height="23" rx="5" fill="#D3BF03"/>
<path d="M24.664 6.228V13.088C24.664 14.04 24.3887 14.782 23.838 15.314C23.2873 15.8367 22.55 16.098 21.626 16.098C20.6927 16.098 19.9367 15.8273 19.358 15.286C18.7887 14.7447 18.504 13.9887 18.504 13.018H20.464C20.4733 13.438 20.5713 13.7647 20.758 13.998C20.954 14.2313 21.234 14.348 21.598 14.348C21.9527 14.348 22.2233 14.236 22.41 14.012C22.5967 13.788 22.69 13.48 22.69 13.088V6.228H24.664ZM30.4644 16.098C29.783 16.098 29.167 15.9813 28.6164 15.748C28.075 15.5147 27.6457 15.1787 27.3284 14.74C27.011 14.3013 26.8477 13.7833 26.8384 13.186H28.9384C28.9664 13.5873 29.1064 13.9047 29.3584 14.138C29.6197 14.3713 29.9744 14.488 30.4224 14.488C30.8797 14.488 31.239 14.3807 31.5004 14.166C31.7617 13.942 31.8924 13.6527 31.8924 13.298C31.8924 13.0087 31.8037 12.7707 31.6264 12.584C31.449 12.3973 31.225 12.2527 30.9544 12.15C30.693 12.038 30.329 11.9167 29.8624 11.786C29.2277 11.5993 28.7097 11.4173 28.3084 11.24C27.9164 11.0533 27.5757 10.778 27.2864 10.414C27.0064 10.0407 26.8664 9.546 26.8664 8.93C26.8664 8.35133 27.011 7.84733 27.3004 7.418C27.5897 6.98867 27.9957 6.662 28.5184 6.438C29.041 6.20467 29.6384 6.088 30.3104 6.088C31.3184 6.088 32.135 6.33533 32.7604 6.83C33.395 7.31533 33.745 7.99667 33.8104 8.874H31.6544C31.6357 8.538 31.491 8.26267 31.2204 8.048C30.959 7.824 30.609 7.712 30.1704 7.712C29.7877 7.712 29.4797 7.81 29.2464 8.006C29.0224 8.202 28.9104 8.48667 28.9104 8.86C28.9104 9.12133 28.9944 9.34067 29.1624 9.518C29.3397 9.686 29.5544 9.826 29.8064 9.938C30.0677 10.0407 30.4317 10.162 30.8984 10.302C31.533 10.4887 32.051 10.6753 32.4524 10.862C32.8537 11.0487 33.199 11.3287 33.4884 11.702C33.7777 12.0753 33.9224 12.5653 33.9224 13.172C33.9224 13.6947 33.787 14.18 33.5164 14.628C33.2457 15.076 32.849 15.4353 32.3264 15.706C31.8037 15.9673 31.183 16.098 30.4644 16.098Z" fill="#F1F1F1"/>
</svg>
