<svg width="59" height="30" viewBox="0 0 59 30" fill="none" xmlns="http://www.w3.org/2000/svg">
<rect width="59" height="30" rx="5" fill="#DBC500"/>
<path d="M27.616 9.832V17.672C27.616 18.76 27.3013 19.608 26.672 20.216C26.0427 20.8133 25.2 21.112 24.144 21.112C23.0773 21.112 22.2133 20.8027 21.552 20.184C20.9013 19.5653 20.576 18.7013 20.576 17.592H22.816C22.8267 18.072 22.9387 18.4453 23.152 18.712C23.376 18.9787 23.696 19.112 24.112 19.112C24.5173 19.112 24.8267 18.984 25.04 18.728C25.2533 18.472 25.36 18.12 25.36 17.672V9.832H27.616ZM34.245 21.112C33.4663 21.112 32.7623 20.9787 32.133 20.712C31.5143 20.4453 31.0237 20.0613 30.661 19.56C30.2983 19.0587 30.1117 18.4667 30.101 17.784H32.501C32.533 18.2427 32.693 18.6053 32.981 18.872C33.2797 19.1387 33.685 19.272 34.197 19.272C34.7197 19.272 35.1303 19.1493 35.429 18.904C35.7277 18.648 35.877 18.3173 35.877 17.912C35.877 17.5813 35.7757 17.3093 35.573 17.096C35.3703 16.8827 35.1143 16.7173 34.805 16.6C34.5063 16.472 34.0903 16.3333 33.557 16.184C32.8317 15.9707 32.2397 15.7627 31.781 15.56C31.333 15.3467 30.9437 15.032 30.613 14.616C30.293 14.1893 30.133 13.624 30.133 12.92C30.133 12.2587 30.2983 11.6827 30.629 11.192C30.9597 10.7013 31.4237 10.328 32.021 10.072C32.6183 9.80533 33.301 9.672 34.069 9.672C35.221 9.672 36.1543 9.95467 36.869 10.52C37.5943 11.0747 37.9943 11.8533 38.069 12.856H35.605C35.5837 12.472 35.4183 12.1573 35.109 11.912C34.8103 11.656 34.4103 11.528 33.909 11.528C33.4717 11.528 33.1197 11.64 32.853 11.864C32.597 12.088 32.469 12.4133 32.469 12.84C32.469 13.1387 32.565 13.3893 32.757 13.592C32.9597 13.784 33.205 13.944 33.493 14.072C33.7917 14.1893 34.2077 14.328 34.741 14.488C35.4663 14.7013 36.0583 14.9147 36.517 15.128C36.9757 15.3413 37.3703 15.6613 37.701 16.088C38.0317 16.5147 38.197 17.0747 38.197 17.768C38.197 18.3653 38.0423 18.92 37.733 19.432C37.4237 19.944 36.9703 20.3547 36.373 20.664C35.7757 20.9627 35.0663 21.112 34.245 21.112Z" fill="white"/>
</svg>
