<svg width="20" height="20" viewBox="0 0 20 20" fill="none" xmlns="http://www.w3.org/2000/svg">
<g clip-path="url(#clip0_24_4)">
<path d="M12.7583 7.24186C15.0921 9.57815 15.0601 13.3238 12.7723 15.6243C12.768 15.629 12.763 15.634 12.7583 15.6387L10.1333 18.2637C7.81804 20.579 4.05128 20.5787 1.7364 18.2637C-0.578839 15.9489 -0.578839 12.1817 1.7364 9.86686L3.18585 8.4174C3.57022 8.03303 4.23218 8.2885 4.25202 8.8317C4.27733 9.52396 4.40147 10.2195 4.63054 10.8911C4.70811 11.1185 4.65269 11.3701 4.48276 11.54L3.97155 12.0512C2.87679 13.146 2.84245 14.9286 3.92643 16.034C5.02112 17.1504 6.82042 17.157 7.92351 16.054L10.5485 13.4294C11.6497 12.3281 11.6451 10.5482 10.5485 9.45162C10.4039 9.30732 10.2583 9.19522 10.1446 9.11689C10.0641 9.06164 9.99765 8.98833 9.95053 8.90284C9.90341 8.81734 9.87693 8.72202 9.87319 8.62447C9.85772 8.2117 10.004 7.78635 10.3301 7.46018L11.1526 6.63772C11.3682 6.42205 11.7066 6.39557 11.9566 6.5701C12.243 6.77008 12.5113 6.99486 12.7583 7.24186ZM18.2635 1.73631C15.9487 -0.578613 12.1819 -0.578926 9.86667 1.73631L7.24167 4.36131C7.23698 4.366 7.2319 4.37107 7.22761 4.37576C4.93987 6.67623 4.9078 10.4219 7.24167 12.7582C7.48865 13.0052 7.75689 13.2299 8.04327 13.4299C8.29335 13.6044 8.63171 13.5779 8.84733 13.3623L9.66976 12.5398C9.99593 12.2137 10.1422 11.7883 10.1267 11.3755C10.123 11.278 10.0965 11.1827 10.0494 11.0972C10.0023 11.0117 9.93581 10.9384 9.85534 10.8831C9.74159 10.8048 9.59597 10.6927 9.4514 10.5484C8.35479 9.45178 8.35019 7.67186 9.4514 6.57064L12.0764 3.94603C13.1795 2.84295 14.9787 2.84959 16.0735 3.96596C17.1574 5.07143 17.1232 6.854 16.0283 7.94877L15.5171 8.45998C15.3472 8.6299 15.2918 8.88146 15.3694 9.10889C15.5984 9.78053 15.7226 10.476 15.7479 11.1683C15.7678 11.7115 16.4297 11.967 16.8141 11.5826L18.2635 10.1331C20.5788 7.81834 20.5788 4.05115 18.2635 1.73631Z" fill="#F1F1F1"/>
</g>
<defs>
<clipPath id="clip0_24_4">
<rect width="20" height="20" fill="white"/>
</clipPath>
</defs>
</svg>
