<svg width="59" height="30" viewBox="0 0 59 30" fill="none" xmlns="http://www.w3.org/2000/svg">
<rect width="59" height="30" rx="5" fill="#FF1B7B"/>
<path d="M13.96 21.112C13.1813 21.112 12.4773 20.9787 11.848 20.712C11.2293 20.4453 10.7387 20.0613 10.376 19.56C10.0133 19.0587 9.82667 18.4667 9.816 17.784H12.216C12.248 18.2427 12.408 18.6053 12.696 18.872C12.9947 19.1387 13.4 19.272 13.912 19.272C14.4347 19.272 14.8453 19.1493 15.144 18.904C15.4427 18.648 15.592 18.3173 15.592 17.912C15.592 17.5813 15.4907 17.3093 15.288 17.096C15.0853 16.8827 14.8293 16.7173 14.52 16.6C14.2213 16.472 13.8053 16.3333 13.272 16.184C12.5467 15.9707 11.9547 15.7627 11.496 15.56C11.048 15.3467 10.6587 15.032 10.328 14.616C10.008 14.1893 9.848 13.624 9.848 12.92C9.848 12.2587 10.0133 11.6827 10.344 11.192C10.6747 10.7013 11.1387 10.328 11.736 10.072C12.3333 9.80533 13.016 9.672 13.784 9.672C14.936 9.672 15.8693 9.95467 16.584 10.52C17.3093 11.0747 17.7093 11.8533 17.784 12.856H15.32C15.2987 12.472 15.1333 12.1573 14.824 11.912C14.5253 11.656 14.1253 11.528 13.624 11.528C13.1867 11.528 12.8347 11.64 12.568 11.864C12.312 12.088 12.184 12.4133 12.184 12.84C12.184 13.1387 12.28 13.3893 12.472 13.592C12.6747 13.784 12.92 13.944 13.208 14.072C13.5067 14.1893 13.9227 14.328 14.456 14.488C15.1813 14.7013 15.7733 14.9147 16.232 15.128C16.6907 15.3413 17.0853 15.6613 17.416 16.088C17.7467 16.5147 17.912 17.0747 17.912 17.768C17.912 18.3653 17.7573 18.92 17.448 19.432C17.1387 19.944 16.6853 20.3547 16.088 20.664C15.4907 20.9627 14.7813 21.112 13.96 21.112ZM26.862 18.872H22.414L21.678 21H19.326L23.342 9.816H25.95L29.966 21H27.598L26.862 18.872ZM26.254 17.08L24.638 12.408L23.022 17.08H26.254ZM35.4831 21.112C34.7045 21.112 34.0005 20.9787 33.3711 20.712C32.7525 20.4453 32.2618 20.0613 31.8991 19.56C31.5365 19.0587 31.3498 18.4667 31.3391 17.784H33.7391C33.7711 18.2427 33.9311 18.6053 34.2191 18.872C34.5178 19.1387 34.9231 19.272 35.4351 19.272C35.9578 19.272 36.3685 19.1493 36.6671 18.904C36.9658 18.648 37.1151 18.3173 37.1151 17.912C37.1151 17.5813 37.0138 17.3093 36.8111 17.096C36.6085 16.8827 36.3525 16.7173 36.0431 16.6C35.7445 16.472 35.3285 16.3333 34.7951 16.184C34.0698 15.9707 33.4778 15.7627 33.0191 15.56C32.5711 15.3467 32.1818 15.032 31.8511 14.616C31.5311 14.1893 31.3711 13.624 31.3711 12.92C31.3711 12.2587 31.5365 11.6827 31.8671 11.192C32.1978 10.7013 32.6618 10.328 33.2591 10.072C33.8565 9.80533 34.5391 9.672 35.3071 9.672C36.4591 9.672 37.3925 9.95467 38.1071 10.52C38.8325 11.0747 39.2325 11.8533 39.3071 12.856H36.8431C36.8218 12.472 36.6565 12.1573 36.3471 11.912C36.0485 11.656 35.6485 11.528 35.1471 11.528C34.7098 11.528 34.3578 11.64 34.0911 11.864C33.8351 12.088 33.7071 12.4133 33.7071 12.84C33.7071 13.1387 33.8031 13.3893 33.9951 13.592C34.1978 13.784 34.4431 13.944 34.7311 14.072C35.0298 14.1893 35.4458 14.328 35.9791 14.488C36.7045 14.7013 37.2965 14.9147 37.7551 15.128C38.2138 15.3413 38.6085 15.6613 38.9391 16.088C39.2698 16.5147 39.4351 17.0747 39.4351 17.768C39.4351 18.3653 39.2805 18.92 38.9711 19.432C38.6618 19.944 38.2085 20.3547 37.6111 20.664C37.0138 20.9627 36.3045 21.112 35.4831 21.112ZM45.3931 21.112C44.6145 21.112 43.9105 20.9787 43.2811 20.712C42.6625 20.4453 42.1718 20.0613 41.8091 19.56C41.4465 19.0587 41.2598 18.4667 41.2491 17.784H43.6491C43.6811 18.2427 43.8411 18.6053 44.1291 18.872C44.4278 19.1387 44.8331 19.272 45.3451 19.272C45.8678 19.272 46.2785 19.1493 46.5771 18.904C46.8758 18.648 47.0251 18.3173 47.0251 17.912C47.0251 17.5813 46.9238 17.3093 46.7211 17.096C46.5185 16.8827 46.2625 16.7173 45.9531 16.6C45.6545 16.472 45.2385 16.3333 44.7051 16.184C43.9798 15.9707 43.3878 15.7627 42.9291 15.56C42.4811 15.3467 42.0918 15.032 41.7611 14.616C41.4411 14.1893 41.2811 13.624 41.2811 12.92C41.2811 12.2587 41.4465 11.6827 41.7771 11.192C42.1078 10.7013 42.5718 10.328 43.1691 10.072C43.7665 9.80533 44.4491 9.672 45.2171 9.672C46.3691 9.672 47.3025 9.95467 48.0171 10.52C48.7425 11.0747 49.1425 11.8533 49.2171 12.856H46.7531C46.7318 12.472 46.5665 12.1573 46.2571 11.912C45.9585 11.656 45.5585 11.528 45.0571 11.528C44.6198 11.528 44.2678 11.64 44.0011 11.864C43.7451 12.088 43.6171 12.4133 43.6171 12.84C43.6171 13.1387 43.7131 13.3893 43.9051 13.592C44.1078 13.784 44.3531 13.944 44.6411 14.072C44.9398 14.1893 45.3558 14.328 45.8891 14.488C46.6145 14.7013 47.2065 14.9147 47.6651 15.128C48.1238 15.3413 48.5185 15.6613 48.8491 16.088C49.1798 16.5147 49.3451 17.0747 49.3451 17.768C49.3451 18.3653 49.1905 18.92 48.8811 19.432C48.5718 19.944 48.1185 20.3547 47.5211 20.664C46.9238 20.9627 46.2145 21.112 45.3931 21.112Z" fill="white"/>
</svg>
