<svg width="53" height="23" viewBox="0 0 53 23" fill="none" xmlns="http://www.w3.org/2000/svg">
<rect width="53" height="23" rx="5" fill="#ED0064"/>
<path d="M12.34 16.098C11.6587 16.098 11.0427 15.9813 10.492 15.748C9.95067 15.5147 9.52133 15.1787 9.204 14.74C8.88667 14.3013 8.72333 13.7833 8.714 13.186H10.814C10.842 13.5873 10.982 13.9047 11.234 14.138C11.4953 14.3713 11.85 14.488 12.298 14.488C12.7553 14.488 13.1147 14.3807 13.376 14.166C13.6373 13.942 13.768 13.6527 13.768 13.298C13.768 13.0087 13.6793 12.7707 13.502 12.584C13.3247 12.3973 13.1007 12.2527 12.83 12.15C12.5687 12.038 12.2047 11.9167 11.738 11.786C11.1033 11.5993 10.5853 11.4173 10.184 11.24C9.792 11.0533 9.45133 10.778 9.162 10.414C8.882 10.0407 8.742 9.546 8.742 8.93C8.742 8.35133 8.88667 7.84733 9.176 7.418C9.46533 6.98867 9.87133 6.662 10.394 6.438C10.9167 6.20467 11.514 6.088 12.186 6.088C13.194 6.088 14.0107 6.33533 14.636 6.83C15.2707 7.31533 15.6207 7.99667 15.686 8.874H13.53C13.5113 8.538 13.3667 8.26267 13.096 8.048C12.8347 7.824 12.4847 7.712 12.046 7.712C11.6633 7.712 11.3553 7.81 11.122 8.006C10.898 8.202 10.786 8.48667 10.786 8.86C10.786 9.12133 10.87 9.34067 11.038 9.518C11.2153 9.686 11.43 9.826 11.682 9.938C11.9433 10.0407 12.3073 10.162 12.774 10.302C13.4087 10.4887 13.9267 10.6753 14.328 10.862C14.7293 11.0487 15.0747 11.3287 15.364 11.702C15.6533 12.0753 15.798 12.5653 15.798 13.172C15.798 13.6947 15.6627 14.18 15.392 14.628C15.1213 15.076 14.7247 15.4353 14.202 15.706C13.6793 15.9673 13.0587 16.098 12.34 16.098ZM17.1613 11.1C17.1613 10.1387 17.3759 9.28 17.8053 8.524C18.2439 7.75867 18.8366 7.166 19.5833 6.746C20.3393 6.31667 21.1839 6.102 22.1173 6.102C23.2093 6.102 24.1659 6.382 24.9873 6.942C25.8086 7.502 26.3826 8.27667 26.7093 9.266H24.4553C24.2313 8.79933 23.9139 8.44933 23.5033 8.216C23.1019 7.98267 22.6353 7.866 22.1033 7.866C21.5339 7.866 21.0253 8.00133 20.5773 8.272C20.1386 8.53333 19.7933 8.90667 19.5413 9.392C19.2986 9.87733 19.1773 10.4467 19.1773 11.1C19.1773 11.744 19.2986 12.3133 19.5413 12.808C19.7933 13.2933 20.1386 13.6713 20.5773 13.942C21.0253 14.2033 21.5339 14.334 22.1033 14.334C22.6353 14.334 23.1019 14.2173 23.5033 13.984C23.9139 13.7413 24.2313 13.3867 24.4553 12.92H26.7093C26.3826 13.9187 25.8086 14.698 24.9873 15.258C24.1753 15.8087 23.2186 16.084 22.1173 16.084C21.1839 16.084 20.3393 15.874 19.5833 15.454C18.8366 15.0247 18.2439 14.432 17.8053 13.676C17.3759 12.92 17.1613 12.0613 17.1613 11.1ZM31.8973 16.098C31.216 16.098 30.6 15.9813 30.0493 15.748C29.508 15.5147 29.0787 15.1787 28.7613 14.74C28.444 14.3013 28.2807 13.7833 28.2713 13.186H30.3713C30.3993 13.5873 30.5393 13.9047 30.7913 14.138C31.0527 14.3713 31.4073 14.488 31.8553 14.488C32.3127 14.488 32.672 14.3807 32.9333 14.166C33.1947 13.942 33.3253 13.6527 33.3253 13.298C33.3253 13.0087 33.2367 12.7707 33.0593 12.584C32.882 12.3973 32.658 12.2527 32.3873 12.15C32.126 12.038 31.762 11.9167 31.2953 11.786C30.6607 11.5993 30.1427 11.4173 29.7413 11.24C29.3493 11.0533 29.0087 10.778 28.7193 10.414C28.4393 10.0407 28.2993 9.546 28.2993 8.93C28.2993 8.35133 28.444 7.84733 28.7333 7.418C29.0227 6.98867 29.4287 6.662 29.9513 6.438C30.474 6.20467 31.0713 6.088 31.7433 6.088C32.7513 6.088 33.568 6.33533 34.1933 6.83C34.828 7.31533 35.178 7.99667 35.2433 8.874H33.0873C33.0687 8.538 32.924 8.26267 32.6533 8.048C32.392 7.824 32.042 7.712 31.6033 7.712C31.2207 7.712 30.9127 7.81 30.6793 8.006C30.4553 8.202 30.3433 8.48667 30.3433 8.86C30.3433 9.12133 30.4273 9.34067 30.5953 9.518C30.7727 9.686 30.9873 9.826 31.2393 9.938C31.5007 10.0407 31.8647 10.162 32.3313 10.302C32.966 10.4887 33.484 10.6753 33.8853 10.862C34.2867 11.0487 34.632 11.3287 34.9213 11.702C35.2107 12.0753 35.3553 12.5653 35.3553 13.172C35.3553 13.6947 35.22 14.18 34.9493 14.628C34.6787 15.076 34.282 15.4353 33.7593 15.706C33.2367 15.9673 32.616 16.098 31.8973 16.098ZM40.5686 16.098C39.8873 16.098 39.2713 15.9813 38.7206 15.748C38.1793 15.5147 37.7499 15.1787 37.4326 14.74C37.1153 14.3013 36.9519 13.7833 36.9426 13.186H39.0426C39.0706 13.5873 39.2106 13.9047 39.4626 14.138C39.7239 14.3713 40.0786 14.488 40.5266 14.488C40.9839 14.488 41.3433 14.3807 41.6046 14.166C41.8659 13.942 41.9966 13.6527 41.9966 13.298C41.9966 13.0087 41.9079 12.7707 41.7306 12.584C41.5533 12.3973 41.3293 12.2527 41.0586 12.15C40.7973 12.038 40.4333 11.9167 39.9666 11.786C39.3319 11.5993 38.8139 11.4173 38.4126 11.24C38.0206 11.0533 37.6799 10.778 37.3906 10.414C37.1106 10.0407 36.9706 9.546 36.9706 8.93C36.9706 8.35133 37.1153 7.84733 37.4046 7.418C37.6939 6.98867 38.0999 6.662 38.6226 6.438C39.1453 6.20467 39.7426 6.088 40.4146 6.088C41.4226 6.088 42.2393 6.33533 42.8646 6.83C43.4993 7.31533 43.8493 7.99667 43.9146 8.874H41.7586C41.7399 8.538 41.5953 8.26267 41.3246 8.048C41.0633 7.824 40.7133 7.712 40.2746 7.712C39.8919 7.712 39.5839 7.81 39.3506 8.006C39.1266 8.202 39.0146 8.48667 39.0146 8.86C39.0146 9.12133 39.0986 9.34067 39.2666 9.518C39.4439 9.686 39.6586 9.826 39.9106 9.938C40.1719 10.0407 40.5359 10.162 41.0026 10.302C41.6373 10.4887 42.1553 10.6753 42.5566 10.862C42.9579 11.0487 43.3033 11.3287 43.5926 11.702C43.8819 12.0753 44.0266 12.5653 44.0266 13.172C44.0266 13.6947 43.8913 14.18 43.6206 14.628C43.3499 15.076 42.9533 15.4353 42.4306 15.706C41.9079 15.9673 41.2873 16.098 40.5686 16.098Z" fill="#F1F1F1"/>
</svg>
