<svg width="40" height="40" viewBox="0 0 40 40" fill="none" xmlns="http://www.w3.org/2000/svg">
<g clip-path="url(#clip0_115_929)">
<path d="M0 10C0 4.47715 4.47715 0 10 0H30C35.5228 0 40 4.47715 40 10V30C40 35.5228 35.5228 40 30 40H10C4.47715 40 0 35.5228 0 30V10Z" fill="#1A1F16"/>
<path d="M15.1973 27.1929C13.8778 27.1929 12.8102 28.2725 12.8102 29.592C12.8102 30.9115 13.8778 31.9911 15.1973 31.9911C16.5168 31.9911 17.5964 30.9115 17.5964 29.592C17.5964 28.2725 16.5168 27.1929 15.1973 27.1929ZM27.1929 27.1929C25.8734 27.1929 24.8058 28.2725 24.8058 29.592C24.8058 30.9115 25.8734 31.9911 27.1929 31.9911C28.5124 31.9911 29.592 30.9115 29.592 29.592C29.592 28.2725 28.5124 27.1929 27.1929 27.1929ZM25.4535 21.1951C26.3532 21.1951 27.1449 20.7033 27.5527 19.9596L31.8471 12.1744C32.291 11.3827 31.7152 10.3991 30.8035 10.3991H13.0501L11.9225 8H8V10.3991H10.3991L14.7175 19.5037L13.0981 22.4306C12.2224 24.038 13.374 25.9933 15.1973 25.9933H29.592V23.5942H15.1973L16.5168 21.1951H25.4535ZM14.1897 12.7982H28.7643L25.4535 18.796H17.0326L14.1897 12.7982Z" fill="white"/>
</g>
<defs>
<clipPath id="clip0_115_929">
<rect width="40" height="40" fill="white"/>
</clipPath>
</defs>
</svg>
