<svg width="878" height="781" viewBox="0 0 878 781" fill="none" xmlns="http://www.w3.org/2000/svg">
<g clip-path="url(#clip0_966_58)">
<path opacity="0.1" d="M877.018 367.502C871.517 392.005 843.275 404.287 827.452 422.566C797.634 457.018 809.246 507.33 828.164 547.623C834.496 561.115 841.684 575.399 839 589.866C835.731 607.562 818.357 620.497 800.112 627.356C766.867 639.847 727.053 636.87 696.491 619.592C670.086 604.664 651.168 580.422 624.311 566.129C579.359 542.287 522.147 551.331 473.332 567.722C438.805 579.342 401.049 594.462 366.736 582.328C342.594 573.78 325.9 552.977 316.805 530.972C312.42 520.326 309.23 508.801 300.848 500.367C295.861 495.344 289.355 491.784 282.698 488.79C221.844 461.371 144.97 476.055 85.8972 445.642C45.9877 425.108 20.4289 386.373 9.11777 345.975C-2.19334 305.578 -0.879386 263.222 1.99391 221.615C4.03608 192.019 7.70091 160.492 28.4868 137.669C50.4758 113.531 88.2085 104.592 122.324 109.144C156.439 113.696 187.349 130.087 214.554 149.341C248.59 173.418 280.078 203.387 321.816 213.136C350.24 219.778 380.136 216.139 409.455 214.877C458.467 212.779 507.495 217.489 556.23 222.572C579.977 225.07 603.802 227.69 627.342 231.485C632.619 232.333 637.896 233.247 643.173 234.227C645.817 234.723 648.461 235.237 651.089 235.768C653.147 236.177 655.197 236.638 657.247 237.048C660.482 237.738 663.706 238.464 666.919 239.224C676.149 241.4 685.291 243.863 694.338 246.666C725.794 256.424 751.013 274.146 780.719 286.524C800.08 294.593 821.191 296.821 839.523 307.092C862.082 319.705 882.804 341.736 877.018 367.502Z" fill="#45B000"/>
<path d="M675.95 477.75C732.41 477.75 778.18 431.98 778.18 375.52C778.18 319.06 732.41 273.29 675.95 273.29C619.49 273.29 573.72 319.06 573.72 375.52C573.72 431.98 619.49 477.75 675.95 477.75Z" fill="#45B000"/>
<path d="M567.23 449.82C623.69 449.82 669.46 404.05 669.46 347.59C669.46 291.13 623.69 245.36 567.23 245.36C510.77 245.36 465 291.13 465 347.59C465 404.05 510.77 449.82 567.23 449.82Z" fill="#45B000"/>
<path d="M447.55 450.82C504.01 450.82 549.78 405.05 549.78 348.59C549.78 292.13 504.01 246.36 447.55 246.36C391.09 246.36 345.32 292.13 345.32 348.59C345.32 405.05 391.09 450.82 447.55 450.82Z" fill="#45B000"/>
<path d="M408.65 477.75C465.11 477.75 510.88 431.98 510.88 375.52C510.88 319.06 465.11 273.29 408.65 273.29C352.19 273.29 306.42 319.06 306.42 375.52C306.42 431.98 352.19 477.75 408.65 477.75Z" fill="#45B000"/>
<path d="M342.82 486.73C399.28 486.73 445.05 440.96 445.05 384.5C445.05 328.04 399.28 282.27 342.82 282.27C286.36 282.27 240.59 328.04 240.59 384.5C240.59 440.96 286.36 486.73 342.82 486.73Z" fill="#45B000"/>
<path d="M315.89 405.94C372.35 405.94 418.12 360.17 418.12 303.71C418.12 247.25 372.35 201.48 315.89 201.48C259.43 201.48 213.66 247.25 213.66 303.71C213.66 360.17 259.43 405.94 315.89 405.94Z" fill="#45B000"/>
<path d="M345.81 312.18C402.27 312.18 448.04 266.41 448.04 209.95C448.04 153.49 402.27 107.72 345.81 107.72C289.35 107.72 243.58 153.49 243.58 209.95C243.58 266.41 289.35 312.18 345.81 312.18Z" fill="#45B000"/>
<path d="M402.66 312.18C459.12 312.18 504.89 266.41 504.89 209.95C504.89 153.49 459.12 107.72 402.66 107.72C346.2 107.72 300.43 153.49 300.43 209.95C300.43 266.41 346.2 312.18 402.66 312.18Z" fill="#45B000"/>
<path d="M435.58 270.29C492.04 270.29 537.81 224.52 537.81 168.06C537.81 111.6 492.04 65.8301 435.58 65.8301C379.12 65.8301 333.35 111.6 333.35 168.06C333.35 224.52 379.12 270.29 435.58 270.29Z" fill="#45B000"/>
<path d="M519.36 316.17C575.82 316.17 621.59 270.4 621.59 213.94C621.59 157.48 575.82 111.71 519.36 111.71C462.9 111.71 417.13 157.48 417.13 213.94C417.13 270.4 462.9 316.17 519.36 316.17Z" fill="#45B000"/>
<path d="M714.85 405.94C771.31 405.94 817.08 360.17 817.08 303.71C817.08 247.25 771.31 201.48 714.85 201.48C658.39 201.48 612.62 247.25 612.62 303.71C612.62 360.17 658.39 405.94 714.85 405.94Z" fill="#45B000"/>
<path d="M656 355.07C712.46 355.07 758.23 309.3 758.23 252.84C758.23 196.38 712.46 150.61 656 150.61C599.54 150.61 553.77 196.38 553.77 252.84C553.77 309.3 599.54 355.07 656 355.07Z" fill="#45B000"/>
<path d="M618.1 304.2C674.56 304.2 720.33 258.43 720.33 201.97C720.33 145.51 674.56 99.74 618.1 99.74C561.64 99.74 515.87 145.51 515.87 201.97C515.87 258.43 561.64 304.2 618.1 304.2Z" fill="#45B000"/>
<path d="M546.29 227.4C602.75 227.4 648.52 181.63 648.52 125.17C648.52 68.7099 602.75 22.9399 546.29 22.9399C489.83 22.9399 444.06 68.7099 444.06 125.17C444.06 181.63 489.83 227.4 546.29 227.4Z" fill="#45B000"/>
<path d="M679.94 312.18C736.4 312.18 782.17 266.41 782.17 209.95C782.17 153.49 736.4 107.72 679.94 107.72C623.48 107.72 577.71 153.49 577.71 209.95C577.71 266.41 623.48 312.18 679.94 312.18Z" fill="#45B000"/>
<g opacity="0.1">
<path d="M675.95 477.75C732.41 477.75 778.18 431.98 778.18 375.52C778.18 319.06 732.41 273.29 675.95 273.29C619.49 273.29 573.72 319.06 573.72 375.52C573.72 431.98 619.49 477.75 675.95 477.75Z" fill="black"/>
<path d="M567.23 449.82C623.69 449.82 669.46 404.05 669.46 347.59C669.46 291.13 623.69 245.36 567.23 245.36C510.77 245.36 465 291.13 465 347.59C465 404.05 510.77 449.82 567.23 449.82Z" fill="black"/>
<path d="M447.55 450.82C504.01 450.82 549.78 405.05 549.78 348.59C549.78 292.13 504.01 246.36 447.55 246.36C391.09 246.36 345.32 292.13 345.32 348.59C345.32 405.05 391.09 450.82 447.55 450.82Z" fill="black"/>
<path d="M408.65 477.75C465.11 477.75 510.88 431.98 510.88 375.52C510.88 319.06 465.11 273.29 408.65 273.29C352.19 273.29 306.42 319.06 306.42 375.52C306.42 431.98 352.19 477.75 408.65 477.75Z" fill="black"/>
<path d="M342.82 486.73C399.28 486.73 445.05 440.96 445.05 384.5C445.05 328.04 399.28 282.27 342.82 282.27C286.36 282.27 240.59 328.04 240.59 384.5C240.59 440.96 286.36 486.73 342.82 486.73Z" fill="black"/>
<path d="M315.89 405.94C372.35 405.94 418.12 360.17 418.12 303.71C418.12 247.25 372.35 201.48 315.89 201.48C259.43 201.48 213.66 247.25 213.66 303.71C213.66 360.17 259.43 405.94 315.89 405.94Z" fill="black"/>
<path d="M345.81 312.18C402.27 312.18 448.04 266.41 448.04 209.95C448.04 153.49 402.27 107.72 345.81 107.72C289.35 107.72 243.58 153.49 243.58 209.95C243.58 266.41 289.35 312.18 345.81 312.18Z" fill="black"/>
<path d="M402.66 312.18C459.12 312.18 504.89 266.41 504.89 209.95C504.89 153.49 459.12 107.72 402.66 107.72C346.2 107.72 300.43 153.49 300.43 209.95C300.43 266.41 346.2 312.18 402.66 312.18Z" fill="black"/>
<path d="M435.58 270.29C492.04 270.29 537.81 224.52 537.81 168.06C537.81 111.6 492.04 65.8298 435.58 65.8298C379.12 65.8298 333.35 111.6 333.35 168.06C333.35 224.52 379.12 270.29 435.58 270.29Z" fill="black"/>
<path d="M519.36 316.17C575.82 316.17 621.59 270.4 621.59 213.94C621.59 157.48 575.82 111.71 519.36 111.71C462.9 111.71 417.13 157.48 417.13 213.94C417.13 270.4 462.9 316.17 519.36 316.17Z" fill="black"/>
<path d="M714.85 405.94C771.31 405.94 817.08 360.17 817.08 303.71C817.08 247.25 771.31 201.48 714.85 201.48C658.39 201.48 612.62 247.25 612.62 303.71C612.62 360.17 658.39 405.94 714.85 405.94Z" fill="black"/>
<path d="M656 355.07C712.46 355.07 758.23 309.3 758.23 252.84C758.23 196.38 712.46 150.61 656 150.61C599.54 150.61 553.77 196.38 553.77 252.84C553.77 309.3 599.54 355.07 656 355.07Z" fill="black"/>
<path d="M618.1 304.2C674.56 304.2 720.33 258.43 720.33 201.97C720.33 145.51 674.56 99.74 618.1 99.74C561.64 99.74 515.87 145.51 515.87 201.97C515.87 258.43 561.64 304.2 618.1 304.2Z" fill="black"/>
<path d="M546.29 227.4C602.75 227.4 648.52 181.63 648.52 125.17C648.52 68.7099 602.75 22.9399 546.29 22.9399C489.83 22.9399 444.06 68.7099 444.06 125.17C444.06 181.63 489.83 227.4 546.29 227.4Z" fill="black"/>
<path d="M679.94 312.18C736.4 312.18 782.17 266.41 782.17 209.95C782.17 153.49 736.4 107.72 679.94 107.72C623.48 107.72 577.71 153.49 577.71 209.95C577.71 266.41 623.48 312.18 679.94 312.18Z" fill="black"/>
</g>
<path d="M625.46 554.67C625.46 554.67 687.96 502.14 657.04 427.34L626.12 415.76L592.57 519.05L625.46 554.67Z" fill="#9B4100"/>
<path opacity="0.1" d="M628.79 412.2L636.19 414.97L603.25 516.38L631.99 547.5C629.61 549.87 628.13 551.11 628.13 551.11L595.23 515.49L628.79 412.2Z" fill="black"/>
<path opacity="0.1" d="M448.5 781C682.393 781 872 739.362 872 688C872 636.638 682.393 595 448.5 595C214.607 595 25 636.638 25 688C25 739.362 214.607 781 448.5 781Z" fill="#45B000"/>
<path d="M743.84 543.65C743.84 543.65 723.51 563.98 734.99 594.15C746.47 624.32 715.32 674.48 715.32 674.48L716.32 674.32C758.07 666.95 778.82 619.2 755.6 583.72C746.92 570.55 739.83 555.07 743.84 543.65Z" fill="#45B000"/>
<path d="M743.84 543.65C743.84 543.65 732.36 568.57 743.84 588.9C755.32 609.23 745.84 666.28 715.31 674.48" stroke="#535461" stroke-miterlimit="10"/>
<path d="M780.05 625.88C780.05 625.88 756.85 622.19 754.74 642.98C752.63 663.77 710.12 666.65 710.12 666.65L710.92 667.18C746.01 690.18 779.55 681.85 774.49 651.27C772.62 639.9 772.77 628.48 780.05 625.88Z" fill="#45B000"/>
<path opacity="0.2" d="M780.05 625.88C780.05 625.88 756.85 622.19 754.74 642.98C752.63 663.77 710.12 666.65 710.12 666.65L710.92 667.18C746.01 690.18 779.55 681.85 774.49 651.27C772.62 639.9 772.77 628.48 780.05 625.88Z" fill="#F5F5F5"/>
<path d="M780.05 625.88C780.05 625.88 762.05 629.88 763.52 646.21C764.99 662.54 736.78 682.21 710.13 666.65" stroke="#535461" stroke-miterlimit="10"/>
<path d="M343.2 445.26L351.32 477.76C351.32 477.76 408.69 485.24 446.94 480.54C453.702 479.581 460.193 477.239 466.01 473.66C469.24 471.75 474.34 470.92 481.31 476.14C493.25 485.14 551.85 557.14 542.36 631.84C541.623 637.468 539.052 642.697 535.045 646.718C531.037 650.738 525.816 653.326 520.19 654.08V654.08C508.504 655.672 497.333 659.899 487.52 666.44L458.52 685.75L755.87 679.25L725 641.88C725 641.88 703.88 624.01 687.63 622.38C682.89 621.91 678.98 617.56 675.82 611.65C657.31 577 635.17 544.42 611.17 513.31C593.69 490.65 579.02 466.77 580.39 451.77C583.64 416.02 580.39 357.53 580.39 357.53L518.65 349.41C518.65 349.41 526.77 427.41 452.03 446.9C377.29 466.39 343.2 445.26 343.2 445.26Z" fill="#9B4100"/>
<g opacity="0.1">
<path d="M393.57 459.89C393.57 459.89 427.69 481.01 502.44 461.51C577.19 442.01 569.06 364.02 569.06 364.02L580.81 365.55C580.59 360.55 580.42 357.55 580.42 357.55L518.68 349.43C518.68 349.43 526.8 427.43 452.06 446.92C377.32 466.41 343.19 445.3 343.19 445.3L351.31 477.8C351.31 477.8 373.23 480.66 399.01 481.73L393.57 459.89Z" fill="black"/>
<path d="M537.89 681.06C547.703 674.519 558.874 670.292 570.56 668.7V668.7C576.174 667.954 581.386 665.381 585.391 661.378C589.396 657.374 591.972 652.163 592.72 646.55C602.26 571.85 543.63 499.72 531.72 490.76C518.72 481.01 512.22 492.38 512.22 492.38C507.619 493.587 502.942 494.479 498.22 495.05C519.28 523.05 549.41 576.76 542.36 631.92C541.612 637.533 539.036 642.744 535.031 646.748C531.026 650.751 525.814 653.324 520.2 654.07V654.07C508.514 655.662 497.343 659.889 487.53 666.43L458.53 685.74L533.29 684.11L537.89 681.06Z" fill="black"/>
</g>
<path d="M392.96 602.91C392.96 602.91 386.75 581.83 394.12 566.31C397.253 559.821 398.197 552.491 396.81 545.42C396.112 542.065 395.108 538.781 393.81 535.61" stroke="#535461" stroke-width="2" stroke-miterlimit="10"/>
<path d="M398.45 525.8C398.45 528.38 393.77 535.88 393.77 535.88C393.77 535.88 389.12 528.38 389.12 525.8C389.12 524.559 389.613 523.369 390.491 522.491C391.368 521.613 392.559 521.12 393.8 521.12C395.041 521.12 396.232 521.613 397.109 522.491C397.987 523.369 398.48 524.559 398.48 525.8H398.45Z" fill="#45B000"/>
<path d="M406.19 540.11C404.79 542.28 396.79 546.03 396.79 546.03C396.79 546.03 396.94 537.2 398.34 535.03C398.665 534.494 399.094 534.03 399.602 533.663C400.11 533.296 400.686 533.035 401.297 532.895C401.907 532.755 402.54 532.74 403.157 532.849C403.773 532.958 404.362 533.19 404.888 533.53C405.413 533.871 405.865 534.314 406.216 534.833C406.568 535.351 406.811 535.935 406.933 536.55C407.054 537.164 407.051 537.797 406.923 538.41C406.796 539.023 406.546 539.605 406.19 540.12V540.11Z" fill="#45B000"/>
<path d="M405.85 564.55C403.54 565.71 394.75 564.91 394.75 564.91C394.75 564.91 399.33 557.36 401.64 556.2C402.189 555.924 402.787 555.758 403.4 555.713C404.013 555.667 404.629 555.743 405.212 555.936C405.796 556.129 406.336 556.434 406.801 556.836C407.267 557.237 407.649 557.726 407.925 558.275C408.201 558.824 408.367 559.422 408.412 560.035C408.458 560.648 408.382 561.264 408.189 561.847C407.996 562.431 407.691 562.971 407.289 563.436C406.888 563.902 406.399 564.284 405.85 564.56V564.55Z" fill="#45B000"/>
<path d="M401.43 583.02C399.35 584.56 390.55 585.25 390.55 585.25C390.55 585.25 393.79 577.03 395.87 575.5C396.87 574.822 398.093 574.557 399.284 574.76C400.475 574.964 401.541 575.62 402.26 576.591C402.978 577.563 403.293 578.774 403.138 579.972C402.983 581.171 402.371 582.263 401.43 583.02Z" fill="#45B000"/>
<path d="M386.96 546.55C388.81 548.35 397.45 550.22 397.45 550.22C397.45 550.22 395.34 541.64 393.45 539.84C392.552 539.017 391.37 538.577 390.153 538.612C388.936 538.648 387.78 539.156 386.932 540.029C386.083 540.902 385.609 542.072 385.608 543.289C385.608 544.507 386.082 545.676 386.93 546.55H386.96Z" fill="#45B000"/>
<path d="M382.06 568.17C384.37 569.33 393.16 568.53 393.16 568.53C393.16 568.53 388.58 560.98 386.27 559.82C385.161 559.262 383.876 559.167 382.698 559.556C381.519 559.945 380.543 560.786 379.985 561.895C379.427 563.003 379.332 564.288 379.721 565.467C380.11 566.646 380.951 567.622 382.06 568.18V568.17Z" fill="#45B000"/>
<path d="M380.18 589.86C382.26 591.4 391.06 592.09 391.06 592.09C391.06 592.09 387.82 583.87 385.74 582.34C384.74 581.662 383.517 581.397 382.326 581.6C381.135 581.804 380.068 582.46 379.35 583.431C378.632 584.403 378.317 585.614 378.472 586.813C378.627 588.011 379.239 589.103 380.18 589.86V589.86Z" fill="#45B000"/>
<path d="M379.45 600.85C379.45 600.85 390.8 598.58 393.82 595.55C396.84 592.52 410.46 587.23 411.98 591.01C413.5 594.79 432.41 607.65 419.54 609.92C406.67 612.19 389.28 612.92 385.54 611.43C381.8 609.94 379.45 600.85 379.45 600.85Z" fill="#A8A8A8"/>
<path opacity="0.2" d="M419.55 608.55C406.69 610.82 389.29 611.55 385.55 610.06C382.67 608.91 380.67 603.37 379.88 600.8L379.5 600.88C379.5 600.88 381.77 609.96 385.55 611.47C389.33 612.98 406.73 612.23 419.55 609.96C423.26 609.3 424.32 607.77 423.92 605.82C423.6 607.06 422.31 608.04 419.55 608.55Z" fill="black"/>
<path d="M567.62 672.01C567.62 672.01 602.05 665.12 611.24 655.94C620.43 646.76 661.74 630.69 666.33 642.17C670.92 653.65 728.33 692.67 689.33 699.56C650.33 706.45 597.51 708.74 586.03 704.15C574.55 699.56 567.62 672.01 567.62 672.01Z" fill="#A8A8A8"/>
<path opacity="0.2" d="M689.29 695.29C650.29 702.18 597.47 704.47 585.99 699.88C577.25 696.38 571.17 679.58 568.77 671.77L567.62 672.01C567.62 672.01 574.51 699.56 585.98 704.15C597.45 708.74 650.26 706.45 689.28 699.56C700.55 697.56 703.77 692.9 702.55 687C701.6 690.85 697.67 693.82 689.29 695.29Z" fill="black"/>
<path d="M800.66 476.35C800.532 480.459 799.246 484.449 796.95 487.86C794.636 484.462 793.329 480.479 793.18 476.37C793.18 470.02 794.82 464.87 796.89 464.86C798.96 464.85 800.64 470 800.66 476.35Z" fill="#45B000"/>
<path d="M518.37 470.77C518.232 474.879 516.935 478.866 514.63 482.27C512.325 478.866 511.028 474.879 510.89 470.77C510.89 464.42 512.56 459.27 514.63 459.27C516.7 459.27 518.37 464.42 518.37 470.77Z" fill="#45B000"/>
<path d="M826.03 584.09C828.335 587.494 829.632 591.481 829.77 595.59C825.903 594.193 822.509 591.732 819.98 588.49C816.24 583.35 814.57 578.2 816.24 576.99C817.91 575.78 822.3 578.96 826.03 584.09Z" fill="#45B000"/>
<path d="M706.57 523.88C706.432 527.989 705.135 531.975 702.83 535.38C700.525 531.975 699.228 527.989 699.09 523.88C699.09 517.53 700.76 512.38 702.83 512.38C704.9 512.38 706.57 517.55 706.57 523.88Z" fill="#45B000"/>
<path d="M636.69 485.68C636.552 489.789 635.255 493.776 632.95 497.18C630.645 493.776 629.348 489.789 629.21 485.68C629.21 479.33 630.88 474.18 632.95 474.18C635.02 474.18 636.69 479.33 636.69 485.68Z" fill="#45B000"/>
<path d="M593.34 508.97C595.262 512.605 596.119 516.71 595.81 520.81C592.103 519.008 588.983 516.193 586.81 512.69C583.65 507.18 582.55 501.88 584.34 500.85C586.13 499.82 590.19 503.46 593.34 508.97Z" fill="#45B000"/>
<path d="M560.95 614.61C557.857 617.321 554.061 619.103 550 619.75C550.907 615.741 552.928 612.07 555.83 609.16C560.46 604.82 565.37 602.52 566.78 604.02C568.19 605.52 565.58 610.27 560.95 614.61Z" fill="#45B000"/>
<path opacity="0.1" d="M560.95 614.61C557.857 617.321 554.061 619.103 550 619.75C550.907 615.741 552.928 612.07 555.83 609.16C560.46 604.82 565.37 602.52 566.78 604.02C568.19 605.52 565.58 610.27 560.95 614.61Z" fill="black"/>
<path d="M628.96 608.09C625.867 610.801 622.071 612.583 618.01 613.23C618.917 609.221 620.938 605.551 623.84 602.64C628.47 598.3 633.38 596 634.79 597.5C636.2 599 633.59 603.74 628.96 608.09Z" fill="#45B000"/>
<path opacity="0.1" d="M628.96 608.09C625.867 610.801 622.071 612.583 618.01 613.23C618.917 609.221 620.938 605.551 623.84 602.64C628.47 598.3 633.38 596 634.79 597.5C636.2 599 633.59 603.74 628.96 608.09Z" fill="black"/>
<path d="M642 677.03C638.907 679.741 635.112 681.523 631.05 682.17C631.955 678.15 633.98 674.468 636.89 671.55C641.52 667.21 646.43 664.91 647.84 666.41C649.25 667.91 646.64 672.68 642 677.03Z" fill="#45B000"/>
<path opacity="0.1" d="M642 677.03C638.907 679.741 635.112 681.523 631.05 682.17C631.955 678.15 633.98 674.468 636.89 671.55C641.52 667.21 646.43 664.91 647.84 666.41C649.25 667.91 646.64 672.68 642 677.03Z" fill="black"/>
<path d="M744.63 672.14C744.63 672.14 761.74 668.74 766.3 664.21C770.86 659.68 791.4 651.75 793.68 657.41C795.96 663.07 824.48 682.33 805.09 685.72C785.7 689.11 759.46 690.25 753.76 687.99C748.06 685.73 744.63 672.14 744.63 672.14Z" fill="#A8A8A8"/>
<path opacity="0.2" d="M805.12 683.63C785.73 687.03 759.49 688.16 753.79 685.9C749.45 684.17 746.43 675.9 745.23 672.03L744.66 672.15C744.66 672.15 748.08 685.74 753.79 688.01C759.5 690.28 785.73 689.14 805.12 685.74C810.72 684.74 812.32 682.46 811.72 679.54C811.21 681.43 809.26 682.9 805.12 683.63Z" fill="black"/>
<path d="M675.95 454.81C732.41 454.81 778.18 409.04 778.18 352.58C778.18 296.12 732.41 250.35 675.95 250.35C619.49 250.35 573.72 296.12 573.72 352.58C573.72 409.04 619.49 454.81 675.95 454.81Z" fill="#45B000"/>
<path d="M567.23 426.88C623.69 426.88 669.46 381.11 669.46 324.65C669.46 268.19 623.69 222.42 567.23 222.42C510.77 222.42 465 268.19 465 324.65C465 381.11 510.77 426.88 567.23 426.88Z" fill="#45B000"/>
<path d="M447.55 427.88C504.01 427.88 549.78 382.11 549.78 325.65C549.78 269.19 504.01 223.42 447.55 223.42C391.09 223.42 345.32 269.19 345.32 325.65C345.32 382.11 391.09 427.88 447.55 427.88Z" fill="#45B000"/>
<path d="M408.65 454.81C465.11 454.81 510.88 409.04 510.88 352.58C510.88 296.12 465.11 250.35 408.65 250.35C352.19 250.35 306.42 296.12 306.42 352.58C306.42 409.04 352.19 454.81 408.65 454.81Z" fill="#45B000"/>
<path d="M342.82 463.79C399.28 463.79 445.05 418.02 445.05 361.56C445.05 305.1 399.28 259.33 342.82 259.33C286.36 259.33 240.59 305.1 240.59 361.56C240.59 418.02 286.36 463.79 342.82 463.79Z" fill="#45B000"/>
<path d="M315.89 383C372.35 383 418.12 337.23 418.12 280.77C418.12 224.31 372.35 178.54 315.89 178.54C259.43 178.54 213.66 224.31 213.66 280.77C213.66 337.23 259.43 383 315.89 383Z" fill="#45B000"/>
<path d="M345.81 289.24C402.27 289.24 448.04 243.47 448.04 187.01C448.04 130.55 402.27 84.78 345.81 84.78C289.35 84.78 243.58 130.55 243.58 187.01C243.58 243.47 289.35 289.24 345.81 289.24Z" fill="#45B000"/>
<path d="M402.66 289.24C459.12 289.24 504.89 243.47 504.89 187.01C504.89 130.55 459.12 84.78 402.66 84.78C346.2 84.78 300.43 130.55 300.43 187.01C300.43 243.47 346.2 289.24 402.66 289.24Z" fill="#45B000"/>
<path d="M435.58 247.35C492.04 247.35 537.81 201.58 537.81 145.12C537.81 88.6598 492.04 42.8899 435.58 42.8899C379.12 42.8899 333.35 88.6598 333.35 145.12C333.35 201.58 379.12 247.35 435.58 247.35Z" fill="#45B000"/>
<path d="M519.36 293.23C575.82 293.23 621.59 247.46 621.59 191C621.59 134.54 575.82 88.77 519.36 88.77C462.9 88.77 417.13 134.54 417.13 191C417.13 247.46 462.9 293.23 519.36 293.23Z" fill="#45B000"/>
<path d="M714.85 383C771.31 383 817.08 337.23 817.08 280.77C817.08 224.31 771.31 178.54 714.85 178.54C658.39 178.54 612.62 224.31 612.62 280.77C612.62 337.23 658.39 383 714.85 383Z" fill="#45B000"/>
<path d="M656 332.13C712.46 332.13 758.23 286.36 758.23 229.9C758.23 173.44 712.46 127.67 656 127.67C599.54 127.67 553.77 173.44 553.77 229.9C553.77 286.36 599.54 332.13 656 332.13Z" fill="#45B000"/>
<path d="M618.1 281.26C674.56 281.26 720.33 235.49 720.33 179.03C720.33 122.57 674.56 76.8 618.1 76.8C561.64 76.8 515.87 122.57 515.87 179.03C515.87 235.49 561.64 281.26 618.1 281.26Z" fill="#45B000"/>
<path d="M546.29 204.46C602.75 204.46 648.52 158.69 648.52 102.23C648.52 45.7699 602.75 0 546.29 0C489.83 0 444.06 45.7699 444.06 102.23C444.06 158.69 489.83 204.46 546.29 204.46Z" fill="#45B000"/>
<path d="M679.94 289.24C736.4 289.24 782.17 243.47 782.17 187.01C782.17 130.55 736.4 84.78 679.94 84.78C623.48 84.78 577.71 130.55 577.71 187.01C577.71 243.47 623.48 289.24 679.94 289.24Z" fill="#45B000"/>
<path opacity="0.1" d="M777.73 203.02C777.73 203.02 682.52 157.87 624.91 237.89Z" fill="black"/>
<path opacity="0.1" d="M527.65 111.55C527.65 111.55 422.33 108.37 401.65 204.77Z" fill="black"/>
<path opacity="0.1" d="M396.73 320.71C396.73 320.71 301.52 275.55 243.91 355.55Z" fill="black"/>
<path d="M116.078 609C116.078 609 121.568 616.18 113.538 627C105.508 637.82 98.8876 647 101.538 653.76C101.538 653.76 113.648 633.62 123.538 633.34C133.428 633.06 126.918 621.11 116.078 609Z" fill="#45B000"/>
<path opacity="0.1" d="M116.078 609C116.555 609.693 116.933 610.451 117.198 611.25C126.818 622.55 131.948 633.1 122.698 633.37C114.088 633.62 103.748 649.02 101.278 652.91C101.358 653.212 101.454 653.509 101.568 653.8C101.568 653.8 113.678 633.66 123.568 633.38C133.458 633.1 126.918 621.11 116.078 609Z" fill="black"/>
<path d="M126.288 618.16C126.288 620.69 126.008 622.74 125.658 622.74C125.308 622.74 125.028 620.74 125.028 618.16C125.028 615.58 125.378 616.82 125.728 616.82C126.078 616.82 126.288 615.63 126.288 618.16Z" fill="#FFD037"/>
<path d="M129.788 621.17C127.568 622.38 125.628 623.11 125.468 622.8C125.308 622.49 126.968 621.26 129.188 620.05C131.408 618.84 130.528 619.72 130.698 620.05C130.868 620.38 132.008 620 129.788 621.17Z" fill="#FFD037"/>
<path d="M87.0576 609C87.0576 609 81.5676 616.18 89.5976 627C97.6276 637.82 104.248 647 101.598 653.76C101.598 653.76 89.4876 633.62 79.5976 633.34C69.7076 633.06 76.2076 621.11 87.0576 609Z" fill="#45B000"/>
<path opacity="0.1" d="M87.0576 609C86.5797 609.693 86.2026 610.451 85.9376 611.25C76.3176 622.55 71.1876 633.1 80.4376 633.37C89.0476 633.62 99.3876 649.02 101.858 652.91C101.778 653.212 101.681 653.509 101.568 653.8C101.568 653.8 89.4576 633.66 79.5676 633.38C69.6776 633.1 76.2076 621.11 87.0576 609Z" fill="black"/>
<path d="M76.8477 618.16C76.8477 620.69 77.1277 622.74 77.4777 622.74C77.8277 622.74 78.1077 620.74 78.1077 618.16C78.1077 615.58 77.7577 616.82 77.4077 616.82C77.0577 616.82 76.8477 615.63 76.8477 618.16Z" fill="#FFD037"/>
<path d="M73.3377 621.17C75.5577 622.38 77.4977 623.11 77.6577 622.8C77.8177 622.49 76.1577 621.26 73.9377 620.05C71.7177 618.84 72.5977 619.72 72.4277 620.05C72.2577 620.38 71.1577 620 73.3377 621.17Z" fill="#FFD037"/>
<path d="M78.5977 652.85C78.5977 652.85 93.9577 652.38 98.5977 649.08C103.238 645.78 122.228 641.85 123.368 647.13C124.508 652.41 146.448 673.42 129.108 673.56C111.768 673.7 88.8176 670.86 84.1976 668.04C79.5776 665.22 78.5977 652.85 78.5977 652.85Z" fill="#A8A8A8"/>
<path opacity="0.2" d="M129.408 671.73C112.068 671.87 89.1177 669.03 84.4977 666.21C80.9777 664.07 79.5777 656.38 79.1077 652.83H78.5977C78.5977 652.83 79.5977 665.22 84.1877 668.03C88.7777 670.84 111.758 673.69 129.098 673.55C134.098 673.55 135.828 671.73 135.738 669.09C135.048 670.7 133.158 671.7 129.408 671.73Z" fill="black"/>
<path d="M765.56 732.29C767.393 730.796 768.728 728.78 769.39 726.51C769.89 724.21 768.91 721.46 766.71 720.62C764.25 719.68 761.62 721.38 759.63 723.11C757.64 724.84 755.35 726.8 752.74 726.43C754.081 725.214 755.085 723.671 755.653 721.952C756.221 720.233 756.333 718.396 755.98 716.62C755.867 715.884 755.556 715.193 755.08 714.62C753.71 713.16 751.24 713.79 749.6 714.94C744.4 718.6 742.95 725.66 742.92 732.02C742.4 729.73 742.84 727.34 742.82 725.02C742.8 722.7 742.16 720.02 740.18 718.8C738.952 718.14 737.573 717.813 736.18 717.85C733.84 717.76 731.24 718 729.64 719.71C727.64 721.83 728.17 725.4 729.9 727.71C731.63 730.02 734.25 731.51 736.67 733.13C738.61 734.283 740.264 735.859 741.51 737.74C741.657 738.001 741.777 738.276 741.87 738.56H756.52C759.802 736.887 762.843 734.778 765.56 732.29V732.29Z" fill="#45B000"/>
<path d="M424.69 726.87C424.69 726.87 423.69 742.53 425.69 745.13C425.69 745.13 379.77 753.48 374.03 750.87C368.29 748.26 370.9 744.09 374.03 742.52C377.16 740.95 392.82 735.21 394.9 724.26C394.9 724.26 388.12 721.13 410.03 725.26C431.94 729.39 424.69 726.87 424.69 726.87Z" fill="#575757"/>
<path opacity="0.05" d="M424.69 726.87C424.69 726.87 423.69 742.53 425.69 745.13C425.69 745.13 379.77 753.48 374.03 750.87C368.29 748.26 370.9 744.09 374.03 742.52C377.16 740.95 392.82 735.21 394.9 724.26C394.9 724.26 388.12 721.13 410.03 725.26C431.94 729.39 424.69 726.87 424.69 726.87Z" fill="black"/>
<path d="M603.68 575.01C603.68 575.01 597.94 584.4 601.59 602.67C605.24 620.94 592.2 620.93 592.2 620.93H566.12L557.25 597.93L569.77 598.93C569.77 598.93 578.12 596.84 574.47 577.53L603.68 575.01Z" fill="#FFD2D9"/>
<path d="M525.41 553.1C529.41 565.81 534.41 581.29 537.08 589.54L538.98 595.37L556.2 577.63C556.2 577.63 555.44 575.87 554.31 573.41C551.79 567.95 547.4 559.04 545.24 558.32C545.24 558.32 569.24 556.75 576.55 562.49C583.86 568.23 581.77 546.83 581.77 546.83C581.77 546.83 567.68 545.83 562.46 542.66C557.24 539.49 529.06 536.4 529.06 536.4C529.06 536.4 519.67 534.83 525.41 553.1Z" fill="#FFD2D9"/>
<path d="M368.85 706.55L372.5 733.16L381.89 732.16C381.89 732.16 382.46 731.62 383.42 730.76C385.95 728.53 391.22 724.16 396.26 721.76C397.966 720.889 399.816 720.336 401.72 720.13L391.28 704.47C388.741 705.422 386.138 706.194 383.49 706.78C380.74 707.427 377.925 707.763 375.1 707.78C372.953 707.812 370.824 707.393 368.85 706.55V706.55Z" fill="#FFD2D9"/>
<path d="M394.94 725.31C399.64 729.48 421.03 720.61 424.69 734.18L428.05 721.31L438.4 681.71L439.82 676.26L448.44 675.89L547.37 671.67L552.97 671.43L555.97 671.3L552.05 669.36L525.96 656.43C525.96 656.43 516.56 655.77 503.6 653.99C483.95 651.3 456.11 645.99 440.39 636.6C414.3 620.94 404.39 673.65 404.39 673.65C404.39 673.65 400.39 687.02 397.39 700.2C396.013 705.885 394.961 711.645 394.24 717.45C393.79 721.48 393.93 724.4 394.94 725.31Z" fill="#5F5D7E"/>
<path opacity="0.1" d="M383.5 706.74L392.63 717.45L396.27 721.72C397.976 720.849 399.826 720.296 401.73 720.09L391.29 704.43C388.751 705.382 386.148 706.154 383.5 706.74V706.74Z" fill="black"/>
<path d="M383.99 705.48L394.2 717.48L399.12 723.25V724.82C405.12 726.21 423.91 722.25 428.05 721.34L428.86 721.16C440.86 721.68 485.22 695.59 485.22 695.59C485.22 695.59 533.75 703.94 557.22 701.85C570.33 700.68 574.01 695.94 574.7 691.97C575.003 690.008 574.732 688.001 573.92 686.19L552.92 671.44L550.14 669.44L545.7 666.31C545.7 666.31 537.98 664.56 528.18 662.4C512.86 659.02 492.45 654.63 488.32 654.32C481.54 653.8 464.32 659.54 454.4 671.02C452.698 672.812 450.776 674.381 448.68 675.69L448.41 675.87C445.62 677.72 442.19 679.68 438.41 681.69C425.78 688.34 408.94 695.49 397.36 700.18C389.44 703.41 383.99 705.48 383.99 705.48Z" fill="#5F5D7E"/>
<path opacity="0.1" d="M368.85 706.55L372.5 733.16L381.89 732.16C381.89 732.16 382.46 731.62 383.42 730.76C381.34 730.76 377.91 730.21 377.19 725.9C377.19 725.9 380.81 713.25 375.1 707.8C372.952 707.826 370.823 707.4 368.85 706.55Z" fill="black"/>
<path d="M376.12 725.83C376.12 725.83 381.34 707.57 369.34 705.48L349.51 713.31L326.51 714.88C326.51 714.88 320.51 724.67 330.12 735.65C332.763 738.627 335.98 741.038 339.579 742.74C343.177 744.441 347.083 745.397 351.06 745.55L376.12 746.7L383.99 730.55C383.99 730.55 377.2 732.09 376.12 725.83Z" fill="#575757"/>
<path opacity="0.1" d="M503.57 653.99C506.2 654.76 517.08 657.99 528.22 662.42C533.727 664.542 539.092 667.017 544.28 669.83C545.36 670.44 546.39 671.05 547.36 671.66C549.901 673.154 552.175 675.06 554.09 677.3C560.53 685.63 569.99 690.12 574.7 691.95C575.003 689.988 574.732 687.981 573.92 686.17L552.92 671.42L555.92 671.29L552 669.35L554.35 669.2L525.91 656.41C525.91 656.41 516.53 655.77 503.57 653.99Z" fill="black"/>
<path opacity="0.1" d="M537.12 589.55L539.02 595.38L556.24 577.64C556.24 577.64 555.48 575.88 554.35 573.42C552.12 578.01 541.73 586.07 537.12 589.55Z" fill="black"/>
<path d="M599.21 598.2C599.827 596.432 600.279 594.611 600.56 592.76L622.99 600.55C622.99 600.55 638.38 612.29 636.82 637.86C636.82 637.86 617.82 630.86 609.42 639.16L609.25 640.63C607.484 655.222 601.027 668.845 590.85 679.45C586.7 683.81 582.79 688.72 580.72 693.45C580.72 693.45 566.11 689.28 557.24 677.79C548.37 666.3 506.12 654.34 506.12 654.34C506.12 654.34 528.56 654.86 531.69 647.03C534.82 639.2 545.26 622.5 541.61 609.46C537.96 596.42 535.87 592.24 535.87 592.24C535.87 592.24 557.27 577.11 555.7 572.41L569.27 588.07L575.53 590.16C575.036 591.373 574.784 592.67 574.79 593.98C574.43 608.15 594.45 611.55 599.21 598.2Z" fill="#5E6BE8"/>
<path opacity="0.1" d="M575.25 584.48C575.092 582.531 574.828 580.591 574.46 578.67L603.68 576.06C603.68 576.06 601.68 577.81 600.78 584.33C597.35 586.33 593.35 589.11 589.07 589.11C584.081 589.116 579.228 587.49 575.25 584.48V584.48Z" fill="black"/>
<path d="M588.81 588.32C601.49 588.32 611.77 578.04 611.77 565.36C611.77 552.679 601.49 542.4 588.81 542.4C576.13 542.4 565.85 552.679 565.85 565.36C565.85 578.04 576.13 588.32 588.81 588.32Z" fill="#FFD2D9"/>
<path d="M605.77 571.36H602.64V562.49L599.51 553.1C599.51 553.1 583.85 545.79 576.51 547.36L570.81 552.55C570.81 552.55 569.24 540.03 578.64 535.33C588.04 530.63 604.73 532.72 608.91 536.33C613.09 539.94 619.91 546.25 614.65 563.47L613.12 567.71C613.12 567.71 606.81 565.62 605.77 571.36Z" fill="#B86E3E"/>
<g opacity="0.05">
<path d="M565.21 583.41L563.5 582.84L555.62 573.75C555.774 573.319 555.792 572.851 555.67 572.41L565.21 583.41Z" fill="black"/>
<path d="M576.19 600.25C573.96 599.3 572.076 597.687 570.793 595.629C569.511 593.572 568.892 591.171 569.02 588.75C569.02 588.44 569.02 588.15 569.02 587.87L569.18 588.06L575.44 590.15C574.946 591.362 574.694 592.66 574.7 593.97C574.637 596.158 575.151 598.324 576.19 600.25V600.25Z" fill="black"/>
<path d="M515.32 653.91C528.4 658.46 546.11 665.63 551.5 672.6L551.9 673.1C537.57 663.27 506.1 654.33 506.1 654.33C509.179 654.365 512.257 654.224 515.32 653.91V653.91Z" fill="black"/>
<path d="M574.98 688.26C577.05 683.55 580.98 678.63 585.11 674.26C595.287 663.655 601.744 650.032 603.51 635.44L603.68 633.97C612.03 625.62 631.08 632.67 631.08 632.67C632.08 616.45 626.24 605.8 621.85 600.18L623 600.58C623 600.58 638.39 612.32 636.83 637.89C636.83 637.89 617.83 630.89 609.43 639.19L609.26 640.66C607.494 655.251 601.037 668.875 590.86 679.48C586.71 683.84 582.8 688.75 580.73 693.48C580.73 693.48 568.01 689.84 559.11 680.04C563.907 683.642 569.27 686.42 574.98 688.26V688.26Z" fill="black"/>
</g>
<path d="M580.72 627.2C580.72 627.2 605.72 663.2 618.81 673.64C631.9 684.08 635.51 668.94 635.51 668.94V635.55L612.51 632.94L612.26 636.11L611.98 639.73L590.58 616.73C590.58 616.73 569.18 597.42 565.01 608.9C560.84 620.38 580.72 627.2 580.72 627.2Z" fill="#FFD2D9"/>
<path opacity="0.1" d="M612.31 636.11C615.44 637.933 618.76 639.408 622.21 640.51C627.14 642.03 632.79 640.43 635.52 639.45V635.55L612.52 632.94L612.31 636.11Z" fill="black"/>
<path d="M635.78 632.16L637.12 637.75C637.12 637.75 628.96 641.55 622.18 639.47C617.608 637.92 613.243 635.818 609.18 633.21C608.18 632.69 613.35 626.95 613.35 626.95L635.78 632.16Z" fill="#5E6BE8"/>
<path opacity="0.1" d="M485.48 695.82C482.001 693.149 478.128 691.033 474 689.55C470.063 688.206 466.354 686.27 463 683.81" fill="black"/>
<path opacity="0.2" d="M326.58 714.87L327.43 714.81C326.19 717.96 324.43 725.66 331.75 734.07C334.385 737.037 337.592 739.441 341.178 741.141C344.764 742.84 348.655 743.799 352.62 743.96L376.92 745.1L376.14 746.7L351.06 745.55C347.095 745.389 343.204 744.43 339.618 742.731C336.032 741.031 332.825 738.627 330.19 735.66C320.58 724.66 326.58 714.87 326.58 714.87Z" fill="black"/>
<path opacity="0.05" d="M415.19 737.24C415.117 737.553 415.033 737.863 414.94 738.17C414.43 737.88 413.7 737.32 415.19 737.24Z" fill="#00FF00"/>
<path opacity="0.2" d="M374.12 749.31C379.47 751.74 419.69 744.66 425.12 743.68C425.23 744.199 425.441 744.692 425.74 745.13C425.74 745.13 379.82 753.48 374.08 750.87C371.08 749.53 370.39 747.77 370.79 746.17C371.12 747.29 372.06 748.4 374.12 749.31Z" fill="black"/>
<path opacity="0.1" d="M574.22 554.39C568.575 550.977 563.991 546.06 560.98 540.19C560.558 539.543 560.384 538.765 560.49 538C560.86 536.58 562.71 536.33 564.05 535.72C566.54 534.58 567.59 531.72 569.22 529.5C570.619 527.673 572.497 526.269 574.645 525.445C576.793 524.621 579.128 524.408 581.39 524.83C583.77 525.31 585.97 526.49 588.39 526.83C593.57 527.59 599.21 524.45 603.86 526.83C605.98 527.92 607.42 529.97 608.68 531.99C611.85 537.06 615.82 542.45 612.94 548.37C611.29 551.77 608.65 554.59 604.94 555.58C601.23 556.57 596.94 555.74 593.16 555.34C590.06 555 586.8 554.34 583.68 554.62C580 555 577.71 556.49 574.22 554.39Z" fill="black"/>
<path d="M574.22 553.34C568.575 549.926 563.991 545.01 560.98 539.14C560.558 538.493 560.384 537.715 560.49 536.95C560.86 535.53 562.71 535.28 564.05 534.67C566.54 533.53 567.59 530.67 569.22 528.45C570.619 526.623 572.497 525.219 574.645 524.395C576.793 523.571 579.128 523.358 581.39 523.78C583.77 524.26 585.97 525.44 588.39 525.78C593.57 526.54 599.21 523.4 603.86 525.78C605.98 526.87 607.42 528.92 608.68 530.94C611.85 536.01 615.82 541.4 612.94 547.32C611.29 550.72 608.65 553.54 604.94 554.53C601.23 555.52 596.94 554.69 593.16 554.29C590.06 553.95 586.8 553.29 583.68 553.57C580 553.95 577.71 555.45 574.22 553.34Z" fill="#B86E3E"/>
<path d="M144.06 677.66C144.06 688.42 144.66 695.53 144.66 695.53C144.66 695.53 160.03 696.39 159.6 710.64C159.17 724.89 219.34 727.91 219.34 727.91C219.34 727.91 219.34 727.76 219.34 727.48C219.34 727.48 219.34 726.33 219.34 724.25C225.06 725.1 231.18 725.79 234.61 725.46C234.38 726.57 234.11 727.74 233.85 728.78C233.57 729.06 228.03 734.66 228.21 740.62C228.11 743.62 229.47 746.7 233.87 749.26C246.57 756.68 286.12 752.55 286.12 752.55C292.12 748.61 294.12 745.26 294.01 742.48C294.2 738.38 290.11 735.48 286.36 733.61C283.461 732.164 280.139 731.809 277 732.61C272.765 733.548 268.417 733.868 264.09 733.56C264.257 732.7 264.481 731.851 264.76 731.02C268.82 732.17 271.62 733.02 271.62 733.02C271.62 733.02 292.7 721.8 283.92 703.67C282.535 701.155 280.451 699.095 277.92 697.74C284.69 686.07 291.12 672.33 290.48 663.09C289.41 647.67 258.79 651.03 247.32 652.84L225.21 631.15C225.21 615.15 225.7 596.78 224.21 592.8C221.57 585.89 222.45 586.8 220.7 583.74L220.63 583.63C219.63 582.01 216.91 579.44 216.21 579.79C215.912 576.611 215.955 573.409 216.34 570.24C221.782 568.46 226.525 565.012 229.896 560.385C233.267 555.757 235.095 550.185 235.12 544.46C235.123 540.175 234.094 535.953 232.12 532.15L232.42 532.02L229.52 517.76C229.416 517.459 229.374 517.14 229.397 516.822C229.419 516.504 229.505 516.194 229.65 515.91C229.95 515.51 230.46 515.39 230.85 515.11C231.291 514.682 231.577 514.119 231.662 513.511C231.747 512.902 231.627 512.282 231.32 511.75C231.05 511.22 230.68 510.748 230.23 510.36C227.79 507.59 222.6 508.58 219.41 508.17C215.09 507.62 210.56 506.82 206.47 508.96C205.589 509.506 204.67 509.987 203.72 510.4C202.418 510.754 201.065 510.882 199.72 510.78C197.285 510.777 194.856 510.995 192.46 511.43C189.34 510.3 185.67 511.3 182.78 513.03C179.474 515.055 176.781 517.941 174.991 521.38C173.201 524.819 172.382 528.68 172.62 532.55C172.872 534.969 173.337 537.362 174.01 539.7L179.36 560.55C179.702 562.292 180.381 563.949 181.36 565.43C181.597 565.743 181.865 566.031 182.16 566.29C182.67 566.904 183.33 567.377 184.077 567.66C184.823 567.944 185.631 568.03 186.42 567.91C186.624 567.861 186.822 567.791 187.01 567.7C186.829 569.894 186.403 572.061 185.74 574.16C179.62 575.94 170.74 582.16 160.08 600.16C146.4 623.22 144.12 657.22 144.06 677.66Z" fill="url(#paint0_linear_966_58)"/>
<path d="M197.25 707.65H257.09V664.79H197.25V707.65Z" fill="#5F5D7E"/>
<path d="M242.24 655.45C242.24 655.45 286.8 646.11 288.07 664.79C289.34 683.47 261.76 720.79 261.76 720.79L236.76 715.7L243.97 686.84C243.97 686.84 215.54 680.47 213.84 680.05C212.14 679.63 242.24 655.45 242.24 655.45Z" fill="#5F5D7E"/>
<path opacity="0.1" d="M242.24 655.45C242.24 655.45 286.8 646.11 288.07 664.79C289.34 683.47 261.76 720.79 261.76 720.79L236.76 715.7L243.97 686.84C243.97 686.84 215.54 680.47 213.84 680.05C212.14 679.63 242.24 655.45 242.24 655.45Z" fill="black"/>
<path d="M265.59 725.9C265.59 725.9 261.35 733.96 262.59 737.36C263.83 740.76 232.46 732.69 232.46 732.69C232.46 732.69 235.01 722.93 234.58 721.69C234.15 720.45 265.59 725.9 265.59 725.9Z" fill="#5F5D7E"/>
<path d="M238 670.73L241.12 673.55L243.12 675.37C243.12 675.37 253.31 691.92 266.46 681.74C279.61 671.56 256.25 663.94 251.58 663.55C250.644 663.413 249.754 663.051 248.988 662.496C248.222 661.94 247.601 661.207 247.18 660.36C246.464 659.113 245.945 657.764 245.64 656.36L238 670.73Z" fill="#673E23"/>
<path opacity="0.05" d="M238 670.73L241.12 673.55L243.12 675.37C243.12 675.37 253.31 691.92 266.46 681.74C279.61 671.56 256.25 663.94 251.58 663.55C250.644 663.413 249.754 663.051 248.988 662.496C248.222 661.94 247.601 661.207 247.18 660.36C246.464 659.113 245.945 657.764 245.64 656.36L238 670.73Z" fill="black"/>
<path opacity="0.1" d="M265.59 725.9C265.59 725.9 261.35 733.96 262.59 737.36C263.83 740.76 232.46 732.69 232.46 732.69C232.46 732.69 235.01 722.93 234.58 721.69C234.15 720.45 265.59 725.9 265.59 725.9Z" fill="black"/>
<path opacity="0.1" d="M238 670.73L241.12 673.55C241.12 668.11 244.73 663.11 247.2 660.3C246.484 659.054 245.965 657.705 245.66 656.3L238 670.73Z" fill="black"/>
<path d="M219.33 627.87L248.61 657.15C248.61 657.15 238.42 666.06 240.55 675.4L219.33 651.63V627.87Z" fill="#E23636"/>
<path opacity="0.1" d="M219.54 627.87V651.64L222.94 655.45L233.03 666.75L240.76 675.41C238.64 666.07 248.82 657.16 248.82 657.16L219.54 627.87Z" fill="black"/>
<path d="M219.33 585.85C219.33 585.85 219.33 594.76 211.69 592.22C204.05 589.68 209.99 692.8 209.99 692.8C209.99 692.8 232.06 676.25 227.81 664.37C223.56 652.49 222.72 643.55 223.12 631.69C223.52 619.83 219.33 585.85 219.33 585.85Z" fill="#1A1A1A"/>
<path d="M218.9 562.09C218.9 562.09 212.53 579.49 218.9 592.65C225.27 605.81 181.12 585.43 181.12 585.43C181.12 585.43 190.88 580.76 187.49 558.27L218.9 562.09Z" fill="#673E23"/>
<path opacity="0.1" d="M222.72 641.45C222.459 646.113 222.459 650.787 222.72 655.45L232.81 666.75C231.333 663.594 229.663 660.531 227.81 657.58C226.24 655.15 225.89 645.46 225.81 634.4L222.11 630.7C222.5 636.67 222.72 641.45 222.72 641.45Z" fill="black"/>
<path d="M216.12 583.55C215.65 581.32 219.33 584.68 220.51 586.63L220.57 586.74C222.27 589.74 221.42 588.86 223.97 595.65C226.52 602.44 223.12 651.65 226.97 657.65C229.57 661.854 231.841 666.254 233.76 670.81L226.97 668.26C226.97 668.26 224.42 660.62 222.73 658.92C221.04 657.22 221.88 641.52 221.88 641.52C221.88 641.52 220.61 614.36 219.33 608.42C218.32 603.64 217.12 588.24 216.12 583.55Z" fill="#E23636"/>
<path opacity="0.1" d="M216.12 583.55C215.65 581.32 219.33 584.68 220.51 586.63L220.57 586.74C222.27 589.74 221.42 588.86 223.97 595.65C226.52 602.44 223.12 651.65 226.97 657.65C229.57 661.854 231.841 666.254 233.76 670.81L226.97 668.26C226.97 668.26 224.42 660.62 222.73 658.92C221.04 657.22 221.88 641.52 221.88 641.52C221.88 641.52 220.61 614.36 219.33 608.42C218.32 603.64 217.12 588.24 216.12 583.55Z" fill="black"/>
<path d="M206.17 689.4C206.17 689.4 273.22 686.85 281.71 704.68C290.2 722.51 269.83 733.55 269.83 733.55C269.83 733.55 241.4 724.64 235.03 725.91C228.66 727.18 206.17 722.51 206.17 722.51V689.4Z" fill="#5F5D7E"/>
<path d="M243.52 678.37C243.52 678.37 258.8 669.88 267.29 675.37C275.78 680.86 274.93 695.74 263.05 696.16C251.17 696.58 244.8 689.37 244.8 689.37L243.52 678.37Z" fill="#673E23"/>
<path d="M195.56 577.79C195.56 577.79 181.98 568.45 162.03 602.79C142.08 637.13 147.18 696.15 147.18 696.15C147.18 696.15 162.03 697 161.61 711C161.19 725 219.33 728 219.33 728C219.33 728 218.48 588.8 212.54 585C206.6 581.2 195.56 577.79 195.56 577.79Z" fill="#E23636"/>
<path opacity="0.1" d="M195.5 603.11C197.895 604.836 199.844 607.108 201.187 609.737C202.529 612.366 203.226 615.278 203.22 618.23C203.29 630.94 203.6 658.33 204.89 663.51C206.59 670.3 232.05 679.21 245.21 678.79C245.21 678.79 251.58 690.67 243.94 693.22C236.3 695.77 189.62 693.22 189.62 693.22C189.62 693.22 171.37 672.43 170.95 654.22C170.53 636.01 167.95 615.6 170.95 611.78C173.4 608.55 183.65 594.75 195.5 603.11Z" fill="black"/>
<path d="M196.35 601.41C198.757 603.133 200.718 605.405 202.069 608.039C203.421 610.672 204.124 613.59 204.12 616.55C204.19 629.26 204.5 656.65 205.79 661.83C207.49 668.62 232.95 677.53 246.11 677.11C246.11 677.11 252.48 688.99 244.84 691.54C237.2 694.09 190.52 691.54 190.52 691.54C190.52 691.54 172.27 670.75 171.85 652.54C171.43 634.33 168.85 613.92 171.85 610.1C174.25 606.89 184.5 593.05 196.35 601.41Z" fill="#E23636"/>
<path d="M284.07 734.06C290.16 737.06 297.22 743.24 283.84 752.63C283.84 752.63 245.65 756.87 233.34 749.23C221.03 741.59 233.34 729.28 233.34 729.28C233.34 729.28 261.51 736.77 275.03 733.11C278.058 732.313 281.274 732.651 284.07 734.06Z" fill="#4C4C56"/>
<path opacity="0.1" d="M284.07 734.92C290.16 737.82 297.22 743.7 283.84 752.69C283.84 752.69 245.65 756.75 233.34 749.44C221.03 742.13 233.34 730.36 233.34 730.36C233.34 730.36 261.51 737.52 275.03 734.03C278.055 733.262 281.253 733.576 284.07 734.92Z" fill="black"/>
<path opacity="0.1" d="M197.47 633.17C197.47 633.17 199.59 659.91 213.6 665.85Z" fill="black"/>
<path opacity="0.1" d="M218.48 565.06C217.242 568.74 216.4 572.541 215.97 576.4C213.29 577.3 209.37 575.04 206.38 575.04C198.6 575.04 196.38 566.34 191.53 561.04C191.53 558.68 187.53 564.19 187.07 561.25L218.48 565.06Z" fill="black"/>
<path d="M181.12 548.08C181.117 550.298 181.389 552.509 181.93 554.66L182.02 555C183.771 561.596 187.967 567.278 193.755 570.893C199.542 574.509 206.489 575.786 213.184 574.467C219.88 573.148 225.822 569.331 229.806 563.79C233.79 558.249 235.516 551.401 234.635 544.634C233.754 537.867 230.33 531.688 225.06 527.353C219.79 523.018 213.068 520.85 206.258 521.29C199.448 521.73 193.061 524.744 188.392 529.721C183.723 534.699 181.124 541.266 181.12 548.09V548.08Z" fill="#673E23"/>
<path opacity="0.1" d="M162.04 603.25C164.812 598.368 167.986 593.725 171.53 589.37C168.68 593.116 166.078 597.045 163.74 601.13C143.79 635.51 148.89 694.49 148.89 694.49C148.89 694.49 163.74 695.34 163.32 709.34C162.94 721.91 209.73 725.59 219.32 726.21C219.32 727.65 219.32 728.43 219.32 728.43C219.32 728.43 161.18 725.43 161.6 711.43C162.02 697.43 147.17 696.58 147.17 696.58C147.17 696.58 142.12 637.63 162.04 603.25Z" fill="black"/>
<path opacity="0.1" d="M184.51 517.55C187.31 515.86 190.85 514.87 193.87 515.98C196.179 515.553 198.522 515.339 200.87 515.34C202.155 515.436 203.447 515.311 204.69 514.97C205.61 514.566 206.499 514.095 207.35 513.56C211.3 511.46 215.68 512.25 219.85 512.79C223.24 513.23 228.97 512 230.93 515.88C231.226 516.404 231.343 517.01 231.261 517.606C231.18 518.202 230.906 518.755 230.48 519.18C230.1 519.46 229.61 519.57 229.32 519.97C229.179 520.25 229.095 520.555 229.073 520.867C229.05 521.179 229.09 521.493 229.19 521.79L231.99 535.79C230.701 536.418 229.297 536.775 227.864 536.841C226.432 536.906 225.001 536.678 223.66 536.17C222.91 535.875 222.176 535.541 221.46 535.17C219.37 536.53 217.21 535.5 214.68 536.04C213.184 536.47 211.853 537.341 210.86 538.54C207.918 541.676 205.949 545.598 205.19 549.83C204.91 551.42 204.54 553.38 203 553.83C202.416 553.942 201.824 554.003 201.23 554.01C198.45 554.37 197.31 557.66 195.52 559.83C193.34 562.47 189.43 564.19 189.19 567.61C189.13 568.49 189.32 569.46 188.83 570.2C188.499 570.642 188.013 570.942 187.47 571.04C186.614 571.161 185.741 571.037 184.952 570.683C184.163 570.329 183.489 569.76 183.01 569.04C182.078 567.58 181.437 565.953 181.12 564.25L175.95 543.75C175.299 541.46 174.847 539.118 174.6 536.75C174.368 532.954 175.166 529.165 176.911 525.785C178.655 522.406 181.281 519.56 184.51 517.55V517.55Z" fill="black"/>
<path d="M184.12 517.17C186.92 515.48 190.46 514.49 193.48 515.6C195.789 515.173 198.132 514.959 200.48 514.96C201.765 515.056 203.057 514.931 204.3 514.59C205.22 514.186 206.109 513.714 206.96 513.18C210.91 511.08 215.29 511.87 219.46 512.41C222.85 512.85 228.58 511.62 230.54 515.5C230.836 516.024 230.953 516.63 230.871 517.226C230.79 517.822 230.516 518.375 230.09 518.8C229.71 519.08 229.22 519.19 228.93 519.59C228.789 519.87 228.705 520.175 228.683 520.487C228.66 520.799 228.7 521.113 228.8 521.41L231.6 535.41C230.311 536.038 228.907 536.395 227.474 536.461C226.042 536.526 224.611 536.298 223.27 535.79C222.52 535.495 221.786 535.161 221.07 534.79C218.98 536.15 216.82 535.12 214.29 535.66C212.794 536.09 211.463 536.961 210.47 538.16C207.528 541.296 205.559 545.218 204.8 549.45C204.52 551.04 204.15 553 202.61 553.45C202.026 553.562 201.434 553.622 200.84 553.63C198.06 553.99 196.92 557.28 195.13 559.45C192.95 562.09 189.04 563.81 188.8 567.23C188.74 568.11 188.93 569.08 188.44 569.82C188.109 570.262 187.623 570.562 187.08 570.66C186.224 570.781 185.351 570.657 184.562 570.303C183.773 569.949 183.099 569.38 182.62 568.66C181.688 567.199 181.047 565.573 180.73 563.87L175.56 543.37C174.909 541.08 174.457 538.738 174.21 536.37C173.978 532.574 174.776 528.785 176.521 525.405C178.265 522.025 180.891 519.18 184.12 517.17Z" fill="#0F0F0F"/>
</g>
<defs>
<linearGradient id="paint0_linear_966_58" x1="294" y1="630.63" x2="144.06" y2="630.63" gradientUnits="userSpaceOnUse">
<stop stop-color="#808080" stop-opacity="0.25"/>
<stop offset="0.54" stop-color="#808080" stop-opacity="0.12"/>
<stop offset="1" stop-color="#808080" stop-opacity="0.1"/>
</linearGradient>
<clipPath id="clip0_966_58">
<rect width="878" height="781" fill="white"/>
</clipPath>
</defs>
</svg>
