<svg width="406" height="100" viewBox="0 0 406 100" fill="none" xmlns="http://www.w3.org/2000/svg">
<circle cx="50" cy="50" r="48.5" stroke="white" stroke-width="3"/>
<path d="M85.0172 38.8213L51.0764 18.5196C50.661 18.2712 50.1719 18.2712 49.7566 18.5196L15.8158 38.8213C15.3158 39.1204 15 39.7317 15 40.4002C15 41.069 15.3158 41.6802 15.8158 41.9791L27.0516 48.6996V62.1904C27.0516 70.5221 37.3148 77.0488 50.4167 77.0488C63.5186 77.0488 73.7816 70.5224 73.7816 62.1904V48.6996L77.7032 46.354V59.2292C75.8954 59.9662 74.5912 62.0159 74.5912 64.4248C74.5912 66.6088 75.6631 68.4981 77.2104 69.3814L74.0756 79.2757C73.9038 79.8182 73.9656 80.427 74.2412 80.9044C74.5168 81.3817 74.9707 81.6667 75.4556 81.6667H82.9032C83.3881 81.6667 83.842 81.3817 84.1177 80.9044C84.3932 80.427 84.455 79.8182 84.2833 79.2758L81.1485 69.3816C82.6955 68.4983 83.7674 66.6089 83.7674 64.425C83.7674 62.0159 82.4628 59.966 80.6548 59.2292V44.5887L85.0176 41.9792C85.5176 41.6802 85.8333 41.0688 85.8333 40.4004C85.8331 39.7317 85.5172 39.1204 85.0172 38.8213ZM65.2346 69.8698C61.3013 72.2224 56.0388 73.5183 50.4165 73.5183C44.7943 73.5183 39.5319 72.2226 35.5984 69.8698C32.0425 67.7428 30.0029 64.9438 30.0029 62.1905V50.4652L49.7566 62.2809C49.9644 62.4052 50.1905 62.4673 50.4165 62.4673C50.6426 62.4673 50.8686 62.4052 51.0764 62.2809L70.8301 50.4652V62.1905C70.8301 64.9438 68.7906 67.7428 65.2346 69.8698ZM77.5928 78.1363L79.1792 73.1294L80.7654 78.1363H77.5928ZM80.8155 64.4251C80.8157 65.5049 80.0815 66.383 79.1792 66.383C78.2766 66.383 77.5425 65.5047 77.5425 64.4251C77.5425 63.3484 78.2729 62.4725 79.1718 62.4677C79.1742 62.4677 79.1764 62.4681 79.1788 62.4681C79.1812 62.4681 79.1836 62.4677 79.186 62.4677C80.0851 62.4724 80.8155 63.3482 80.8155 64.4251ZM78.8792 41.7032L50.5488 38.6427C49.7371 38.5543 49.0196 39.2711 48.9463 40.2421C48.873 41.2133 49.4716 42.0714 50.2833 42.1591L73.8591 44.7059L50.4165 58.7282L19.7754 40.4002L50.4165 22.0725L81.0576 40.4004L78.8792 41.7032Z" fill="white"/>
<path d="M123.278 44.4883C123.155 43.3408 122.639 42.4473 121.728 41.8079C120.825 41.1684 119.652 40.8487 118.206 40.8487C117.19 40.8487 116.319 41.002 115.592 41.3086C114.865 41.6152 114.308 42.0312 113.923 42.5568C113.538 43.0824 113.34 43.6824 113.332 44.3569C113.332 44.9175 113.459 45.4036 113.713 45.8153C113.975 46.227 114.33 46.5774 114.777 46.8665C115.224 47.1468 115.719 47.3833 116.262 47.576C116.805 47.7687 117.352 47.9308 117.904 48.0621L120.427 48.6928C121.443 48.9293 122.42 49.2491 123.357 49.652C124.303 50.0549 125.148 50.563 125.893 51.1761C126.646 51.7893 127.242 52.5295 127.68 53.3967C128.118 54.2638 128.337 55.2799 128.337 56.445C128.337 58.0217 127.934 59.41 127.128 60.6101C126.322 61.8014 125.157 62.7343 123.633 63.4087C122.117 64.0745 120.282 64.4073 118.127 64.4073C116.034 64.4073 114.216 64.0832 112.675 63.435C111.142 62.7868 109.942 61.8408 109.075 60.5969C108.216 59.3531 107.752 57.8377 107.682 56.0508H112.478C112.548 56.988 112.837 57.7676 113.345 58.3896C113.853 59.0115 114.514 59.4757 115.329 59.7823C116.152 60.0889 117.072 60.2422 118.088 60.2422C119.148 60.2422 120.076 60.0845 120.874 59.7692C121.679 59.4451 122.31 58.9983 122.766 58.429C123.221 57.8509 123.453 57.1764 123.462 56.4055C123.453 55.7048 123.247 55.1267 122.844 54.6712C122.442 54.2069 121.877 53.8215 121.15 53.5149C120.431 53.1996 119.59 52.9193 118.627 52.674L115.565 51.8857C113.349 51.3163 111.597 50.4535 110.31 49.2972C109.031 48.1322 108.391 46.5862 108.391 44.6591C108.391 43.0736 108.821 41.6852 109.679 40.494C110.546 39.3027 111.724 38.3786 113.213 37.7216C114.703 37.0559 116.389 36.723 118.272 36.723C120.182 36.723 121.855 37.0559 123.291 37.7216C124.737 38.3786 125.871 39.2939 126.694 40.4677C127.518 41.6327 127.942 42.9729 127.969 44.4883H123.278ZM141.275 64.3942C139.261 64.3942 137.531 63.9518 136.085 63.0671C134.649 62.1824 133.541 60.9605 132.761 59.4013C131.99 57.8333 131.605 56.0289 131.605 53.9879C131.605 51.9382 131.999 50.1294 132.788 48.5614C133.576 46.9847 134.688 45.7584 136.125 44.8825C137.57 43.9978 139.278 43.5554 141.249 43.5554C142.887 43.5554 144.337 43.8576 145.598 44.462C146.868 45.0576 147.88 45.9029 148.633 46.9979C149.387 48.084 149.816 49.3542 149.921 50.8082H145.375C145.191 49.8359 144.753 49.0257 144.061 48.3775C143.378 47.7205 142.462 47.392 141.315 47.392C140.343 47.392 139.489 47.6548 138.753 48.1804C138.017 48.6972 137.443 49.4418 137.032 50.4141C136.629 51.3864 136.427 52.5514 136.427 53.9091C136.427 55.2843 136.629 56.4669 137.032 57.4567C137.434 58.4377 137.999 59.1954 138.726 59.7298C139.462 60.2553 140.325 60.5181 141.315 60.5181C142.016 60.5181 142.642 60.3867 143.194 60.1239C143.754 59.8524 144.223 59.4626 144.6 58.9545C144.976 58.4465 145.235 57.829 145.375 57.1019H149.921C149.807 58.5297 149.387 59.7955 148.66 60.8991C147.933 61.9941 146.943 62.8525 145.69 63.4744C144.438 64.0876 142.966 64.3942 141.275 64.3942ZM158.583 52.1747V64H153.827V37.0909H158.478V47.2475H158.714C159.188 46.1088 159.919 45.2109 160.909 44.554C161.907 43.8883 163.177 43.5554 164.719 43.5554C166.121 43.5554 167.343 43.8488 168.385 44.4357C169.427 45.0226 170.233 45.881 170.803 47.011C171.381 48.141 171.67 49.5206 171.67 51.1499V64H166.913V51.8857C166.913 50.5279 166.563 49.4724 165.862 48.7191C165.17 47.957 164.198 47.576 162.945 47.576C162.104 47.576 161.351 47.7599 160.685 48.1278C160.028 48.487 159.512 49.0082 159.135 49.6914C158.767 50.3746 158.583 51.2024 158.583 52.1747ZM185.321 64.3942C183.35 64.3942 181.642 63.9606 180.197 63.0934C178.752 62.2262 177.631 61.013 176.833 59.4538C176.045 57.8946 175.651 56.0727 175.651 53.9879C175.651 51.9032 176.045 50.0768 176.833 48.5089C177.631 46.9409 178.752 45.7234 180.197 44.8562C181.642 43.989 183.35 43.5554 185.321 43.5554C187.292 43.5554 189 43.989 190.446 44.8562C191.891 45.7234 193.008 46.9409 193.796 48.5089C194.593 50.0768 194.992 51.9032 194.992 53.9879C194.992 56.0727 194.593 57.8946 193.796 59.4538C193.008 61.013 191.891 62.2262 190.446 63.0934C189 63.9606 187.292 64.3942 185.321 64.3942ZM185.348 60.5838C186.416 60.5838 187.31 60.2904 188.028 59.7035C188.746 59.1078 189.281 58.3107 189.631 57.3121C189.99 56.3136 190.17 55.2011 190.17 53.9748C190.17 52.7397 189.99 51.6229 189.631 50.6243C189.281 49.617 188.746 48.8155 188.028 48.2198C187.31 47.6242 186.416 47.3263 185.348 47.3263C184.253 47.3263 183.342 47.6242 182.615 48.2198C181.896 48.8155 181.358 49.617 180.999 50.6243C180.648 51.6229 180.473 52.7397 180.473 53.9748C180.473 55.2011 180.648 56.3136 180.999 57.3121C181.358 58.3107 181.896 59.1078 182.615 59.7035C183.342 60.2904 184.253 60.5838 185.348 60.5838ZM207.832 64.3942C205.861 64.3942 204.153 63.9606 202.708 63.0934C201.263 62.2262 200.141 61.013 199.344 59.4538C198.556 57.8946 198.162 56.0727 198.162 53.9879C198.162 51.9032 198.556 50.0768 199.344 48.5089C200.141 46.9409 201.263 45.7234 202.708 44.8562C204.153 43.989 205.861 43.5554 207.832 43.5554C209.803 43.5554 211.511 43.989 212.956 44.8562C214.402 45.7234 215.519 46.9409 216.307 48.5089C217.104 50.0768 217.503 51.9032 217.503 53.9879C217.503 56.0727 217.104 57.8946 216.307 59.4538C215.519 61.013 214.402 62.2262 212.956 63.0934C211.511 63.9606 209.803 64.3942 207.832 64.3942ZM207.858 60.5838C208.927 60.5838 209.821 60.2904 210.539 59.7035C211.257 59.1078 211.791 58.3107 212.142 57.3121C212.501 56.3136 212.68 55.2011 212.68 53.9748C212.68 52.7397 212.501 51.6229 212.142 50.6243C211.791 49.617 211.257 48.8155 210.539 48.2198C209.821 47.6242 208.927 47.3263 207.858 47.3263C206.763 47.3263 205.852 47.6242 205.125 48.2198C204.407 48.8155 203.868 49.617 203.509 50.6243C203.159 51.6229 202.984 52.7397 202.984 53.9748C202.984 55.2011 203.159 56.3136 203.509 57.3121C203.868 58.3107 204.407 59.1078 205.125 59.7035C205.852 60.2904 206.763 60.5838 207.858 60.5838ZM226.296 37.0909V64H221.54V37.0909H226.296ZM255.199 44.4883C255.076 43.3408 254.56 42.4473 253.649 41.8079C252.746 41.1684 251.573 40.8487 250.127 40.8487C249.111 40.8487 248.24 41.002 247.513 41.3086C246.785 41.6152 246.229 42.0312 245.844 42.5568C245.458 43.0824 245.261 43.6824 245.253 44.3569C245.253 44.9175 245.38 45.4036 245.634 45.8153C245.896 46.227 246.251 46.5774 246.698 46.8665C247.145 47.1468 247.64 47.3833 248.183 47.576C248.726 47.7687 249.273 47.9308 249.825 48.0621L252.348 48.6928C253.364 48.9293 254.341 49.2491 255.278 49.652C256.224 50.0549 257.069 50.563 257.814 51.1761C258.567 51.7893 259.163 52.5295 259.601 53.3967C260.039 54.2638 260.258 55.2799 260.258 56.445C260.258 58.0217 259.855 59.41 259.049 60.6101C258.243 61.8014 257.078 62.7343 255.554 63.4087C254.038 64.0745 252.203 64.4073 250.048 64.4073C247.955 64.4073 246.137 64.0832 244.596 63.435C243.063 62.7868 241.863 61.8408 240.995 60.5969C240.137 59.3531 239.673 57.8377 239.603 56.0508H244.399C244.469 56.988 244.758 57.7676 245.266 58.3896C245.774 59.0115 246.435 59.4757 247.25 59.7823C248.073 60.0889 248.993 60.2422 250.009 60.2422C251.069 60.2422 251.997 60.0845 252.794 59.7692C253.6 59.4451 254.231 58.9983 254.687 58.429C255.142 57.8509 255.374 57.1764 255.383 56.4055C255.374 55.7048 255.168 55.1267 254.765 54.6712C254.362 54.2069 253.797 53.8215 253.07 53.5149C252.352 53.1996 251.511 52.9193 250.548 52.674L247.486 51.8857C245.27 51.3163 243.518 50.4535 242.231 49.2972C240.952 48.1322 240.312 46.5862 240.312 44.6591C240.312 43.0736 240.741 41.6852 241.6 40.494C242.467 39.3027 243.645 38.3786 245.134 37.7216C246.623 37.0559 248.31 36.723 250.193 36.723C252.102 36.723 253.776 37.0559 255.212 37.7216C256.657 38.3786 257.792 39.2939 258.615 40.4677C259.439 41.6327 259.863 42.9729 259.89 44.4883H255.199ZM273.196 64.3942C271.182 64.3942 269.452 63.9518 268.006 63.0671C266.57 62.1824 265.462 60.9605 264.682 59.4013C263.911 57.8333 263.526 56.0289 263.526 53.9879C263.526 51.9382 263.92 50.1294 264.708 48.5614C265.497 46.9847 266.609 45.7584 268.046 44.8825C269.491 43.9978 271.199 43.5554 273.17 43.5554C274.808 43.5554 276.258 43.8576 277.519 44.462C278.789 45.0576 279.801 45.9029 280.554 46.9979C281.308 48.084 281.737 49.3542 281.842 50.8082H277.296C277.112 49.8359 276.674 49.0257 275.982 48.3775C275.299 47.7205 274.383 47.392 273.236 47.392C272.263 47.392 271.409 47.6548 270.674 48.1804C269.938 48.6972 269.364 49.4418 268.952 50.4141C268.549 51.3864 268.348 52.5514 268.348 53.9091C268.348 55.2843 268.549 56.4669 268.952 57.4567C269.355 58.4377 269.92 59.1954 270.647 59.7298C271.383 60.2553 272.246 60.5181 273.236 60.5181C273.937 60.5181 274.563 60.3867 275.115 60.1239C275.675 59.8524 276.144 59.4626 276.521 58.9545C276.897 58.4465 277.156 57.829 277.296 57.1019H281.842C281.728 58.5297 281.308 59.7955 280.581 60.8991C279.854 61.9941 278.864 62.8525 277.611 63.4744C276.359 64.0876 274.887 64.3942 273.196 64.3942ZM290.504 52.1747V64H285.748V37.0909H290.399V47.2475H290.635C291.108 46.1088 291.84 45.2109 292.83 44.554C293.828 43.8883 295.098 43.5554 296.64 43.5554C298.042 43.5554 299.263 43.8488 300.306 44.4357C301.348 45.0226 302.154 45.881 302.723 47.011C303.302 48.141 303.591 49.5206 303.591 51.1499V64H298.834V51.8857C298.834 50.5279 298.484 49.4724 297.783 48.7191C297.091 47.957 296.119 47.576 294.866 47.576C294.025 47.576 293.272 47.7599 292.606 48.1278C291.949 48.487 291.432 49.0082 291.056 49.6914C290.688 50.3746 290.504 51.2024 290.504 52.1747ZM317.374 64.3942C315.35 64.3942 313.603 63.9737 312.131 63.1328C310.668 62.2831 309.543 61.0831 308.754 59.5327C307.966 57.9735 307.572 56.1384 307.572 54.0273C307.572 51.9513 307.966 50.1294 308.754 48.5614C309.551 46.9847 310.664 45.7584 312.092 44.8825C313.52 43.9978 315.197 43.5554 317.124 43.5554C318.368 43.5554 319.542 43.7569 320.645 44.1598C321.758 44.554 322.739 45.1671 323.589 45.9993C324.447 46.8314 325.121 47.8913 325.612 49.179C326.102 50.4579 326.348 51.982 326.348 53.7514V55.2099H309.805V52.0039H321.788C321.78 51.0929 321.583 50.2827 321.197 49.5732C320.812 48.8549 320.273 48.2899 319.581 47.8782C318.898 47.4665 318.101 47.2607 317.19 47.2607C316.217 47.2607 315.363 47.4972 314.628 47.9702C313.892 48.4344 313.318 49.0476 312.906 49.8097C312.503 50.563 312.298 51.3907 312.289 52.293V55.0916C312.289 56.2654 312.503 57.2727 312.933 58.1136C313.362 58.9458 313.962 59.5852 314.733 60.032C315.504 60.4699 316.406 60.6889 317.439 60.6889C318.131 60.6889 318.758 60.5926 319.318 60.3999C319.879 60.1984 320.365 59.9049 320.777 59.5195C321.188 59.1341 321.499 58.6567 321.71 58.0874L326.151 58.5866C325.87 59.7604 325.336 60.7853 324.548 61.6612C323.768 62.5284 322.77 63.2029 321.552 63.6847C320.334 64.1577 318.942 64.3942 317.374 64.3942ZM337.861 64.3548C336.276 64.3548 334.856 63.9474 333.604 63.1328C332.351 62.3182 331.361 61.1357 330.634 59.5852C329.907 58.0348 329.544 56.1515 329.544 53.9354C329.544 51.6929 329.912 49.8009 330.648 48.2592C331.392 46.7088 332.395 45.5394 333.656 44.7511C334.918 43.954 336.324 43.5554 337.874 43.5554C339.057 43.5554 340.029 43.7569 340.791 44.1598C341.553 44.554 342.157 45.0314 342.604 45.592C343.051 46.1438 343.397 46.665 343.642 47.1555H343.839V37.0909H348.609V64H343.931V60.8203H343.642C343.397 61.3108 343.042 61.832 342.578 62.3839C342.114 62.927 341.501 63.3912 340.738 63.7766C339.976 64.1621 339.017 64.3548 337.861 64.3548ZM339.188 60.4524C340.195 60.4524 341.054 60.1809 341.763 59.6378C342.473 59.0859 343.012 58.3195 343.379 57.3384C343.747 56.3574 343.931 55.2143 343.931 53.9091C343.931 52.6039 343.747 51.4696 343.379 50.506C343.02 49.5425 342.486 48.7936 341.776 48.2592C341.076 47.7249 340.213 47.4577 339.188 47.4577C338.128 47.4577 337.243 47.7337 336.534 48.2855C335.824 48.8374 335.29 49.5994 334.931 50.5717C334.572 51.544 334.392 52.6565 334.392 53.9091C334.392 55.1705 334.572 56.296 334.931 57.2859C335.299 58.2669 335.838 59.0421 336.547 59.6115C337.265 60.1721 338.146 60.4524 339.188 60.4524ZM366.541 55.5121V43.8182H371.297V64H366.685V60.413H366.475C366.019 61.543 365.27 62.4671 364.228 63.1854C363.194 63.9036 361.92 64.2628 360.405 64.2628C359.082 64.2628 357.912 63.9693 356.896 63.3825C355.889 62.7868 355.101 61.924 354.531 60.794C353.962 59.6553 353.677 58.2801 353.677 56.6683V43.8182H358.434V55.9325C358.434 57.2114 358.784 58.2275 359.485 58.9808C360.186 59.7341 361.105 60.1108 362.244 60.1108C362.945 60.1108 363.624 59.94 364.281 59.5984C364.938 59.2567 365.476 58.7487 365.897 58.0742C366.326 57.391 366.541 56.5369 366.541 55.5121ZM380.944 37.0909V64H376.188V37.0909H380.944ZM394.77 64.3942C392.747 64.3942 390.999 63.9737 389.528 63.1328C388.065 62.2831 386.939 61.0831 386.151 59.5327C385.362 57.9735 384.968 56.1384 384.968 54.0273C384.968 51.9513 385.362 50.1294 386.151 48.5614C386.948 46.9847 388.06 45.7584 389.488 44.8825C390.916 43.9978 392.593 43.5554 394.521 43.5554C395.764 43.5554 396.938 43.7569 398.042 44.1598C399.154 44.554 400.135 45.1671 400.985 45.9993C401.843 46.8314 402.518 47.8913 403.008 49.179C403.499 50.4579 403.744 51.982 403.744 53.7514V55.2099H387.202V52.0039H399.185C399.176 51.0929 398.979 50.2827 398.594 49.5732C398.208 48.8549 397.67 48.2899 396.978 47.8782C396.294 47.4665 395.497 47.2607 394.586 47.2607C393.614 47.2607 392.76 47.4972 392.024 47.9702C391.288 48.4344 390.715 49.0476 390.303 49.8097C389.9 50.563 389.694 51.3907 389.685 52.293V55.0916C389.685 56.2654 389.9 57.2727 390.329 58.1136C390.758 58.9458 391.358 59.5852 392.129 60.032C392.9 60.4699 393.802 60.6889 394.836 60.6889C395.528 60.6889 396.154 60.5926 396.715 60.3999C397.275 60.1984 397.762 59.9049 398.173 59.5195C398.585 59.1341 398.896 58.6567 399.106 58.0874L403.547 58.5866C403.267 59.7604 402.733 60.7853 401.944 61.6612C401.165 62.5284 400.166 63.2029 398.948 63.6847C397.731 64.1577 396.338 64.3942 394.77 64.3942Z" fill="white"/>
</svg>
