<svg width="40" height="40" viewBox="0 0 40 40" fill="none" xmlns="http://www.w3.org/2000/svg">
<rect width="40" height="40" rx="10" fill="#1A1F16"/>
<path d="M10.6666 28.5714H11.1666C11.2108 28.5714 11.2532 28.5526 11.2845 28.5191C11.3157 28.4856 11.3333 28.4402 11.3333 28.3929V20.7817C11.3329 20.7533 11.3388 20.7252 11.3506 20.6997C11.3624 20.6743 11.3797 20.6522 11.4011 20.6354C11.4224 20.6185 11.4472 20.6074 11.4734 20.6028C11.4996 20.5983 11.5264 20.6006 11.5516 20.6094C11.934 20.7381 12.331 20.8099 12.7316 20.8228C12.7808 20.8228 12.8275 20.825 12.8733 20.825C13.6438 20.8269 14.402 20.6173 15.0754 20.2161C15.1264 20.1857 15.1837 20.1698 15.2421 20.1698C15.3004 20.1698 15.3578 20.1857 15.4087 20.2161C16.082 20.6173 16.84 20.8269 17.6104 20.825C18.3765 20.8262 19.1298 20.614 19.7963 20.2094C19.8477 20.1782 19.9058 20.1618 19.9648 20.1618C20.0239 20.1618 20.082 20.1782 20.1334 20.2094C20.8099 20.6155 21.5729 20.8277 22.3484 20.8254C23.1196 20.826 23.8776 20.6105 24.5472 20.2004C24.599 20.1689 24.6576 20.1523 24.7172 20.1523C24.7768 20.1523 24.8354 20.1689 24.8872 20.2004C25.5567 20.6105 26.3147 20.826 27.086 20.8254C27.1314 20.8254 27.1772 20.8254 27.2264 20.8232H27.2289C27.6436 20.8099 28.0543 20.7334 28.4489 20.596C28.4739 20.5873 28.5004 20.5851 28.5263 20.5896C28.5523 20.594 28.5769 20.6049 28.5981 20.6214C28.6194 20.638 28.6366 20.6597 28.6486 20.6847C28.6605 20.7098 28.6668 20.7375 28.6668 20.7656V28.3929C28.6668 28.4402 28.6844 28.4856 28.7156 28.5191C28.7469 28.5526 28.7893 28.5714 28.8335 28.5714H29.3126C29.6727 28.5714 29.9835 28.8679 29.9993 29.2536C30.0034 29.35 29.9892 29.4462 29.9575 29.5366C29.9259 29.6269 29.8775 29.7095 29.8153 29.7792C29.7531 29.849 29.6783 29.9045 29.5955 29.9425C29.5127 29.9804 29.4235 30 29.3335 30H10.6874C10.3274 30 10.0166 29.7036 10.0008 29.3179C9.9967 29.2215 10.0109 29.1252 10.0426 29.0348C10.0742 28.9445 10.1226 28.862 10.1848 28.7922C10.247 28.7224 10.3218 28.6669 10.4046 28.629C10.4874 28.591 10.5765 28.5715 10.6666 28.5714V28.5714ZM21.3334 25.5357C21.3334 25.5831 21.3509 25.6285 21.3822 25.662C21.4135 25.6955 21.4559 25.7143 21.5001 25.7143H25.1668C25.211 25.7143 25.2534 25.6955 25.2846 25.662C25.3159 25.6285 25.3334 25.5831 25.3334 25.5357V22.6786C25.3334 22.5365 25.2808 22.4002 25.187 22.2998C25.0932 22.1993 24.966 22.1429 24.8334 22.1429H21.8334C21.7008 22.1429 21.5736 22.1993 21.4798 22.2998C21.3861 22.4002 21.3334 22.5365 21.3334 22.6786V25.5357ZM14.8333 28.5714H17.8333C17.8776 28.5714 17.9199 28.5526 17.9512 28.5191C17.9825 28.4856 18 28.4402 18 28.3929V22.6786C18 22.5365 17.9473 22.4002 17.8536 22.2998C17.7598 22.1993 17.6326 22.1429 17.5 22.1429H15.1667C15.034 22.1429 14.9069 22.1993 14.8131 22.2998C14.7193 22.4002 14.6666 22.5365 14.6666 22.6786V28.3929C14.6666 28.4402 14.6842 28.4856 14.7155 28.5191C14.7467 28.5526 14.7891 28.5714 14.8333 28.5714ZM10.1428 16.1732L11.9312 11.7763C12.3995 10.6973 13.4691 10 14.6562 10H25.3459C26.533 10 27.6026 10.6973 28.071 11.7763L29.8593 16.1732C30.2343 17.0397 29.7389 17.9295 29.7385 17.9299L29.7268 17.95C29.7064 17.9848 29.6702 18.0393 29.6481 18.0741C29.646 18.0768 29.6443 18.0799 29.6422 18.083L29.4339 18.3531C29.4261 18.3633 29.4178 18.373 29.4089 18.3821L29.2006 18.5978L29.1831 18.6138C29.0607 18.7262 28.9298 18.8274 28.7918 18.9165V18.9188C28.3383 19.2131 27.8217 19.3771 27.2918 19.3951H27.1889C26.3871 19.3967 25.6145 19.0727 25.0268 18.4884L25.013 18.4746C24.9516 18.4126 24.8705 18.3781 24.7861 18.3781C24.7018 18.3781 24.6206 18.4126 24.5593 18.4746L24.5455 18.4884C23.9515 19.0717 23.175 19.3953 22.3692 19.3953C21.5635 19.3953 20.787 19.0717 20.193 18.4884C20.1313 18.4273 20.0505 18.3933 19.9665 18.3933C19.8825 18.3933 19.8017 18.4273 19.74 18.4884C19.1478 19.0699 18.3741 19.3933 17.5708 19.3952C16.7675 19.3971 15.9925 19.0773 15.3979 18.4987C15.3372 18.4384 15.2575 18.4049 15.1748 18.4049C15.092 18.4049 15.0123 18.4384 14.9516 18.4987C14.3564 19.0809 13.578 19.401 12.772 19.3951H12.6683C12.1517 19.3744 11.649 19.2098 11.2099 18.9174C11.1704 18.892 11.1324 18.8652 11.0941 18.8384C10.798 18.6245 10.5402 18.3552 10.3333 18.0433L10.2608 17.9259C10.2535 17.914 10.2469 17.9015 10.2408 17.8884C10.1716 17.7375 9.80075 16.9616 10.1428 16.1732V16.1732Z" fill="white"/>
</svg>
